<?xml version="1.0" encoding="UTF-8"?><svg xmlns="http://www.w3.org/2000/svg" xmlns:xlink="http://www.w3.org/1999/xlink" data-name="Poppy Bouquet" height="1336.0" preserveAspectRatio="xMidYMid meet" version="1.0" viewBox="20.9 39.0 891.4 1336.0" width="891.4" zoomAndPan="magnify"><g data-name="Olive 5" id="change1_1"><path d="M797.89,835.4c-8,10.35-15.3,21.35-24.89,30.46a70.43,70.43,0,0,0-5.54,6.37c-4.17,5-8,10.4-13.17,14.59a32.11,32.11,0,0,0-4.61,5.29A166.35,166.35,0,0,1,725.93,916c-4.65,3.93-9.19,8-13.82,11.95-9.3,7.94-19.9,14-29.84,21-7.66,5.4-15.45,10.6-23.16,15.92a37.84,37.84,0,0,0-5.6,4.25c-7.59,7.71-16.29,14.12-24.42,21.19-5.65,4.91-10.88,10.29-16.33,15.42-2.73,2.56-5.61,5-8.34,7.53-4.77,4.5-10,8.45-14.61,13.18-4.23,4.35-9.19,8-13.84,11.91-7.15,6.06-14.49,11.9-21.08,18.6a97.55,97.55,0,0,1-7.43,6.45c-17.76,14.73-33.8,31-46.68,50.33-2.6,3.89-5.54,7.58-8.49,11.22a108.9,108.9,0,0,0-18.81,35.92c-1,3.13-2.17,6.2-3.17,9.32a72.32,72.32,0,0,0-3.23,15.09c-1,10.26-2.34,20.49-3.62,30.72a264.93,264.93,0,0,1-7.2,35.81,104.8,104.8,0,0,0-2.58,12.39,162.11,162.11,0,0,1-5.22,23.32c-5.6,18.87-11.29,37.72-17.29,56.47a218,218,0,0,1-8.39,20.87,32.18,32.18,0,0,1-4.64,7,9.37,9.37,0,0,1-3.49,2.18c-2,.92-5.07-.7-5.62-2.77a12,12,0,0,1,.37-8.27c7.64-16.19,12.24-33.39,17.23-50.48,3.81-13,8-26,11.1-39.24,2.38-10,5.25-20,6.64-30.22.51-3.7,1.65-7.31,2.36-11,1.16-6,2.31-12,3.27-18,2-12.49,3.76-25,5.82-37.48,2.76-16.65,6.37-33.17,8.41-49.9,2.15-17.65,6-35.1,6.5-53,.11-4.19,1.09-8.36,1.74-12.53,1.24-7.88,2.61-15.74,2-23.78a28.6,28.6,0,0,1,.37-4.2,439.94,439.94,0,0,0,1.42-53.36,12.56,12.56,0,0,1,0-2.81c1.51-8.4.57-16.78.13-25.2-.86-16.46-3.07-32.63-7.74-48.47a342,342,0,0,1-8.51-34.11,131.56,131.56,0,0,0-6.44-23c-5-13.13-9.95-26.34-16.45-38.84a197.36,197.36,0,0,0-22.92-35.31c-6.87-8.29-13.41-16.87-19.83-25.53a237.91,237.91,0,0,0-22.89-26.57A250.6,250.6,0,0,1,351,697.12c-10.06-12.94-21.1-25.08-31.37-37.85-1.17-1.46-2.34-2.93-3.41-4.47-7.75-11.16-15.67-22.22-23.14-33.57a116.67,116.67,0,0,1-10.24-18.41c-2.54-6-5.86-11.74-9-17.53-5.74-10.75-11.27-21.55-15.1-33.22a167.8,167.8,0,0,0-9.51-21.92,179.38,179.38,0,0,1-8.12-19.47c-5.52-15.46-10.86-31-16.19-46.5-1.06-3.1-1.85-6.3-2.6-9.49-2.82-11.86-6.39-23.52-8.51-35.54A199.74,199.74,0,0,0,209,398.62,181.92,181.92,0,0,1,204.77,378c-1.94-11.57-4.36-23-6.93-34.46-3.48-15.56-6-31.33-8.76-47-2.66-15.25-5-30.55-7.55-45.83a45.42,45.42,0,0,0-1.71-8.25c-2.13-5.79-3-11.8-3.85-17.85a23.65,23.65,0,0,0-.44-2.78c-3.59-13.59-6.79-27.28-9.77-41-1.12-5.12-3.95-9.56-6.75-13.86-3.06-4.71-5.95-9.52-8.94-14.27-3.46-5.52-7.79-10.52-12-15.56s-8.56-9.94-14-13.72a41.93,41.93,0,0,1-6.44-5.45A89.5,89.5,0,0,0,90.52,98.2,20.42,20.42,0,0,1,86.9,96C77.5,89,67.25,83.3,56.75,78c-3.76-1.88-7.27-4.21-11.27-5.71A31.66,31.66,0,0,1,32,62.5c-3.53-4.32-7.95-8-9.89-13.56-1.22-3.51.81-8.07,4.44-9a24,24,0,0,1,2.74-.62,27.09,27.09,0,0,1,4.2-.32,51.21,51.21,0,0,1,7,.54C54.79,42,69.14,44.4,83.39,47.27c6,1.21,11.94,2.69,18,2.75,6.92.07,12.52,3.56,18.47,6.24a3.45,3.45,0,0,1,1.17.77c5.33,5.88,12.19,10.31,16.46,17.23,2,3.19,4.32,6.16,6.12,9.43,7.9,14.39,16.85,28.19,23.91,43a108.57,108.57,0,0,1,5.52,12.92,40.91,40.91,0,0,0,6.72,12.24,215,215,0,0,0,20.09,23.44C210.57,185.85,221,196.58,232.77,206c5.87,6.73,12.8,12.33,19.29,18.42,8.52,8,16.66,16.38,25.44,24.16a193.44,193.44,0,0,1,27.23,30.18q6.67,9,13.46,18a347.23,347.23,0,0,1,26.45,41.46c5.21,9.4,10.69,18.65,16.09,27.95a1.67,1.67,0,0,0,2.48.61,3.4,3.4,0,0,0,1.53-2.07c.19-5.61.39-11.24.23-16.86-.35-11.74.25-23.44.9-35.15.34-6.07.83-12.14.31-18.25a82.94,82.94,0,0,1,.35-11.24,218.49,218.49,0,0,0-.75-30.91c-.72-7.93-1.22-15.9-1.5-23.86-.46-13.17-2.39-26.14-4.68-39.08-2-11.09-3.91-22.18-5.76-33.28a149,149,0,0,0-7.37-28.55c-3.64-9.63-6.44-19.59-9.38-29.48a17.46,17.46,0,0,1,1.73-13.61c1.57-2.9,5.47-4.5,8.4-3.25a32.11,32.11,0,0,1,5,2.44c8.27,5.37,16.09,11.19,22.78,18.6,4.37,4.84,9.17,9.33,13.71,14s8.27,10.15,12.43,15.2C416,149.36,426,169.94,435.79,190.78c7.58,16.2,13.33,33,18.26,50.18,8.05,28,17.4,55.48,26.8,83,6.84,20,12.78,40.21,19,60.37,5.67,18.36,11.2,36.76,18,54.76,2.81,7.44,4.87,15.16,7.33,22.74,7.5,23.19,14.59,46.5,21.6,69.84,3.5,11.64,8.33,22.88,12.65,34.27,4,10.53,7.63,21.13,9.94,32.2,1.92,9.17,4.77,18.14,7.13,27.22,4.62,17.78,6.75,35.93,7.57,54.25a16.49,16.49,0,0,1-.05,2.81c-1.8,13.48-3.47,27-5.5,40.42-1,6.48-2.54,12.87-4,19.28Q573,749,571.19,755.74c-2.6,9.49-5.31,19-8,28.44a189.74,189.74,0,0,1-11.68,31.58c-4.89,10.12-9.16,20.53-13.88,30.73-7.86,17-16,33.87-23.75,50.94C507.34,912,502,927,496.71,942c-2,5.75-4.9,11.32-6,17.23s-.26,12.13-.59,18.2q-1,19.69-.67,39.39c.41,22.1-2.09,44-5.34,65.82-.69,4.64-1.61,9.25-2.15,13.9-.59,5.12-.91,10.28-1.19,15.42,0,.65.82,1.41,1.4,2,.12.12.94-.21,1.23-.52,7.94-8.74,13.89-18.85,19.45-29.16,3.56-6.59,6.44-13.54,9.92-20.18,9-17.07,15-35.38,22.38-53.1,3.59-8.6,6.19-17.67,9.33-26.49q9-25.18,19.34-49.8c3.83-9.07,7.38-18.24,10.39-27.63,4.29-13.39,8.84-26.7,13.49-40,1.86-5.29,4.13-10.45,6.51-15.53a319.22,319.22,0,0,1,15-28.63,26.87,26.87,0,0,0,2.21-3.59c3.84-9.7,10.13-17.94,15.9-26.47,5.54-8.2,9.29-17.31,13.69-26.1a61,61,0,0,1,4.7-8.6c10.42-14.47,20.59-29.14,31.69-43.08,6.67-8.39,13.45-16.86,21.61-24a12.89,12.89,0,0,0,2-1.94c6.68-9.14,15.68-16.11,23.07-24.61,4-4.57,8.72-8.5,13.21-12.6,7.27-6.64,14.83-13,21.86-19.82a210.41,210.41,0,0,0,17.07-18.64c7.07-8.83,15.42-16.37,23.3-24.37,7.55-7.67,16.13-14.32,22.65-23,8.09-6.47,13.84-15.24,21.7-22a162.57,162.57,0,0,1,14.38-11.23c6.58-4.49,13.6-8.33,20.11-12.91,4-2.79,8.34-4.23,12.81-5.6a20.92,20.92,0,0,1,13.8.85,9.88,9.88,0,0,1,6.75,8.25,31.62,31.62,0,0,1-.33,11.19,365.75,365.75,0,0,1-10.64,40.78c-3.25,9.78-6.33,19.59-8.64,29.67-2.41,10.5-5.65,20.81-8.65,31.16-.78,2.69-2.11,5.22-3.07,7.86-6.24,17.17-12.6,34.31-18.6,51.56-3.54,10.18-6.93,20.45-9.61,30.88-3.63,14.13-8.76,27.69-14.31,41.1a112,112,0,0,1-8.74,17.62C818.53,801.89,810.33,820,797.89,835.4Zm-367.84-58a8.8,8.8,0,0,0-.28-2.55c-.47-1.1-1.33-1.19-1.92-.33-.1.16.33.8.63,1.09.64.6,1.35,1.12,2,1.68a4.71,4.71,0,0,0,1.7,4.77,38.79,38.79,0,0,0,3.26,2.37,17.44,17.44,0,0,0,0,2.5,1.6,1.6,0,0,0,.78.95,1.32,1.32,0,0,0,1.1.13c.65-.36.57-1.12-.24-1.89-.63-.59-1.37-1-2.06-1.58.56-2-.31-3.48-1.73-4.71C432.27,779,431.14,778.21,430.05,777.41Zm-1.88-36a13.62,13.62,0,0,1,4.45,5.32c2.11,4.16,4.38,8.24,6.63,12.32.18.31.76.46,1.18.56,1.13.28,1.86-.27,1.71-1.52a110.74,110.74,0,0,0-7.43-29.89c-2-4.75-4.07-9.56-5.09-14.56a154.14,154.14,0,0,0-5.31-18.91c-2.71-8-4.8-16.18-8.3-23.9-3-13.39-9.19-25.57-14.86-37.92-9.4-20.42-19.1-40.71-28.58-61.09a85.65,85.65,0,0,1-3.37-9.24,4.91,4.91,0,0,1-.06-2.74,4.68,4.68,0,0,1,1.52-2.16c.91-.72,1.84-.39,2.35.69,1,2.11,2,4.22,2.9,6.38A349.35,349.35,0,0,0,391.08,598a17.34,17.34,0,0,0,2.56,3.26c.22.24.91.21,1.3.08a1.31,1.31,0,0,0,.74-.85c.55-2.4-.14-4.69-1-6.85-3.26-8.29-6.66-16.52-10-24.77-1.77-4.33-3.9-8.55-5.32-13a190.7,190.7,0,0,0-12.55-29.77c-3-5.83-5.75-11.8-8.52-17.74-7.92-17-15.9-34-22.73-51.45-4.26-10.92-9.44-21.47-13.66-32.39-4.73-12.24-8.85-24.71-13.24-37.08-4.56-12.8-8.92-25.68-13.76-38.37-2.67-7-5.38-13.95-7.62-21.14a226.65,226.65,0,0,0-16-37.43c-8.69-16.59-17.75-33-28-48.71a5.5,5.5,0,0,1-.38-1.34c-.34-1.11,0-2,1.06-2.25.84-.19,2.09-.33,2.59.13,4.16,3.75,8.32,7.5,11,12.61,4.13,7.89,9.08,15.3,14,22.75a83,83,0,0,1,5.95,11.12c2.72,6,4.86,12.22,7.74,18.1,7,14.37,11.55,29.68,16.81,44.69,6.84,19.46,13,39.19,20.56,58.36,7.72,19.62,14.43,39.65,23.5,58.72,6,12.7,11,25.91,17.7,38.28,1.12,2.06,2,4.23,3,6.37,2.87,6.42,5.65,12.88,8.62,19.24a10.92,10.92,0,0,0,2.83,3c.25.23,1,.14,1.36,0a1.27,1.27,0,0,0,.72-.91c.23-5.74-1.75-11-3.57-16.31-2.12-6.21-4.87-12.21-5.78-18.8a24.9,24.9,0,0,0-1.75-5.34c-3.91-10.05-8.07-20-12.92-29.64q-4.43-8.78-8.54-17.7c-.29-.63.22-1.78.64-2.54.57-1,2.84-1,3.7-.09a20.16,20.16,0,0,1,3.47,4.3c4.24,8.87,8.28,17.84,12.45,26.75a7.52,7.52,0,0,0,1.79,2.09,2,2,0,0,0,1.24.41c1,0,1.65-.65,1.42-1.82-2-10.12-3.53-20.36-7.32-30-3.43-8.72-7.16-17.33-11-25.9-4.56-10.28-9.33-20.47-14-30.7A1.91,1.91,0,0,1,340,384a7.11,7.11,0,0,1,1.52-2,1.52,1.52,0,0,1,1.33,0c3.13,1.72,4.18,5,5.54,7.92,4.57,9.77,8.81,19.69,13.3,29.49,1.36,3,3.11,5.74,4.75,8.57.12.19.87.18,1.23,0s.82-.59.84-.92a77.75,77.75,0,0,0-2.88-23.55,7.71,7.71,0,0,0-.48-1.32c-5-10.61-8.4-21.9-13.08-32.63-4.48-10.28-10.17-20-15.65-29.81-4.79-8.55-10.92-16.35-15.56-25.07a68.75,68.75,0,0,0-5.66-8.05c-2.5-3.39-5.28-6.61-7.56-10.14-8.46-13.08-19.49-23.95-30-35.31q-4.29-4.65-8.88-9c-7.14-6.75-14.52-13.26-21.53-20.14-10.7-10.49-20.85-21.56-32.93-30.55a13.88,13.88,0,0,1-2.13-1.83c-8.79-9.74-18.93-18.18-27.15-28.44a3.22,3.22,0,0,0-1.15-.8c-.41-.18-1-.43-1.3-.25-.65.45-1.69,1.16-1.64,1.69.9,9.78,1.78,19.58,3,29.33,1,8.38,2.6,16.69,2.37,25.19a34.14,34.14,0,0,0,.45,5.61c2.38,17.18,4,34.53,7.4,51.52,5.32,26.67,8.2,53.8,15.44,80.09,3.08,18.52,7,36.86,11.05,55.18,2.74,12.37,5.45,24.76,9.16,36.86,4.26,13.88,9.17,27.57,14,41.28,2.63,7.52,5.39,15,8.48,22.34,4.9,11.67,10.45,23.07,14.67,35,3,8.46,7.82,16,11.7,24,7.36,15.19,15.07,30.2,24.8,44.09,8.87,12.66,16.78,26,27,37.71q17.55,20.13,34.27,40.95a77.63,77.63,0,0,0,5.87,6,286.28,286.28,0,0,1,27.78,31.65c6.67,9,13.71,17.82,20.69,26.63a6,6,0,0,0,4.8,2.58c.66-2-.46-3.64-1.35-5.12-4.08-6.84-7.89-13.93-12.67-20.27-7.06-9.36-13.49-19.15-20.32-28.64-9.08-12.62-16.26-26.28-24.18-39.54a79.39,79.39,0,0,1-4.32-8.84,16.78,16.78,0,0,1-.94-4.06,2.15,2.15,0,0,1,.38-1.28c.83.1,2.1.08,2.4.59,2.59,4.44,5,9,7.47,13.51,3.33,6.19,6.63,12.39,10.88,18,8.73,11.61,17.49,23.2,26.07,34.92,5.54,7.56,11.35,14.94,15.65,23.35A121.47,121.47,0,0,0,430,762.67c1,1.46,2.78,2.37,4.28,3.44a1.46,1.46,0,0,0,1.35,0,1.41,1.41,0,0,0,.41-1.21c-1-6.11-4.16-11.39-6.7-16.9-1-2.15-1.77-4.35-.74-6.73Zm129.68,235c-1,1.49-2,2.95-2.94,4.46-.22.35-.12.88-.17,1.33.72-.3,1.65-.41,2.12-.94,1.26-1.41,1.77-3.06.53-4.82,2.05-3.13,4.63-6,6-9.45,2.35-5.72,5.89-10.66,9-15.92,3.3-5.66,6.07-11.65,9.62-17.14,6.63-10.24,13.62-20.24,20.56-30.27a44.23,44.23,0,0,1,4.64-5.15c.28-.28.89-.23,1.35-.33.1.46.42,1,.25,1.36a186.82,186.82,0,0,1-10.22,18.29C590.8,930,582,941.63,575.83,954.9c-7.73,11.35-12.42,24.12-17.2,36.84-1.49,4-2.48,8.12-4.32,11.89-5.56,11.43-9.3,23.52-13.54,35.44-.43,1.21,0,1.81,1.54,1.49,6.41-7.3,13.92-14.35,20.13-22.61q7.6-10.12,15.27-20.21c2.28-3,4.3-6.27,7-8.78,5.59-5.14,9.78-11.35,14.38-17.27,4.31-5.56,8.2-11.57,13.19-16.45,5.74-5.61,10.64-11.83,15.77-17.92,2.11-2.5,4.49-4.77,6.72-7.18a81,81,0,0,0,5.62-6.26,363.44,363.44,0,0,1,25.1-30.33c8-8.55,14.1-18.69,22.49-26.94,18.25-24.43,36.47-48.88,53.48-74.21a24,24,0,0,0,3-4.74c2.3-6.27,6.37-11.48,10-16.91,5-7.41,10.19-14.62,13.59-22.94a2.78,2.78,0,0,1,.91-1c.91-.66,1.9-.7,2.49.1,1.12,1.5,1-.83.77,1-.63,5.25-2.93,9.83-5.57,14.27-2.16,3.62-4.85,7-6.46,10.86a75,75,0,0,1-7.77,13.33c-7.42,10.84-14.93,21.62-22.29,32.5-2.36,3.48-4.15,7.36-6.62,10.76s-5.48,6.35-8.19,9.55c-.91,1.06-1.61,2.3-2.45,3.43Q698.61,861.81,684.31,881c-2.53,3.37-4.95,6.92-8,9.81-5.45,5.23-9.82,11.33-14.69,17-2.43,2.85-4.59,6-7.29,8.55a97.57,97.57,0,0,0-10,11.76c-3.72,4.82-7.36,9.8-11.75,14a109.38,109.38,0,0,0-12.11,13.64,66.57,66.57,0,0,1-6.21,7.64c-8.81,8.55-15.61,18.71-23.07,28.33-4,5.19-7.55,10.74-11.2,16.2-.38.56-.08,1.57-.09,2.37.46-.11,1.06-.08,1.34-.36,1.32-1.32,2.54-2.74,3.83-4.1A84.58,84.58,0,0,1,599.8,993a2.86,2.86,0,0,1,3.73.82c.43.73.91,2,.59,2.51a21.49,21.49,0,0,1-4,5.65c-2.76,2.49-6.13,4.32-8.89,6.82-6.59,5.94-13.78,11.33-18.45,19.13-.22.37-.14.91-.26,1.36-.21.77.06.93.83.49a53.7,53.7,0,0,0,10.21-7.21c5.47-5.11,11.13-10,16.72-15q21-18.71,42-37.39c5.61-4.95,11.16-10,17.15-14.49A250.77,250.77,0,0,1,682.7,939.9a199.6,199.6,0,0,0,30.72-22c9.5-8.3,19.75-15.88,27.37-26.18a35.13,35.13,0,0,1,3.07-2.88c6.16-6.41,12.48-12.69,18.37-19.34,4.35-4.91,8-10.43,12.19-15.47,4.48-5.38,9.43-10.37,13.85-15.79a175.31,175.31,0,0,0,16.8-24.29c5.77-10.19,11.33-20.49,17-30.74A219.6,219.6,0,0,0,840,742c2.22-7.16,4.1-14.46,6.87-21.41,2.09-5.26,3.57-10.62,5.12-16,2.47-8.53,5-17,8.31-25.35,5.83-14.8,11.88-29.57,15.61-45.13.54-2.26,1.54-4.41,2.28-6.63,1.34-4,3.1-7.92,3.87-12,3.27-17.57,9.13-34.4,14.64-51.31A188.22,188.22,0,0,0,903.34,534a30.28,30.28,0,0,0-.18-7c-.18-2.31-2.36-4.14-4.7-4.5a20.44,20.44,0,0,0-14.79,3.14c-5.48,3.6-10.84,7.39-16.35,10.94-14.69,9.49-27.13,21.59-38.73,34.46-6.61,7.33-13.56,14.32-20.69,21C796.64,602.77,786,614,775.59,625.36c-11.42,12.46-23.26,24.38-35.85,35.65-8.71,7.79-16.85,16.23-25.24,24.37-5,7.48-11.76,13.39-18,19.65a188.12,188.12,0,0,0-20.61,24.85c-1.9,2.67-4,5.22-5.91,7.88q-9,12.56-18,25.16a60.35,60.35,0,0,0-5.44,9.8,232.75,232.75,0,0,1-12.15,23.75C628,806.86,621.21,817,615.19,827.6c-7.43,13.1-14.17,26.44-19.3,40.57-4.31,11.88-8.22,23.92-12.5,35.82-4.91,13.67-9.45,27.52-15.26,40.8C564,954.27,561,964.1,557.32,973.7,557.05,974.41,557.65,975.45,557.85,976.34ZM471,807a5,5,0,0,1,1.82,5c-1.66,10.82-.69,21.51,1.26,32.18,1.69,9.23,3.19,18.48,4.87,27.71.13.69,1,1.24,1.56,1.86.6-.62,1.68-1.21,1.72-1.87.84-11.69,1.75-23.39,2.22-35.1.36-8.89.23-17.82.12-26.73-.17-14.52-.06-29.07-2.1-43.52-.78-5.56-1.29-11.16-1.86-16.76a348.72,348.72,0,0,1-2-35.1,70.16,70.16,0,0,0-.92-8.38c-1.88-14.88-4.62-29.65-5.42-44.67a52.6,52.6,0,0,0-2.48-13.82c-3-9-4.33-18.26-5.77-27.51-3.32-21.32-6.61-42.64-11.83-63.6-.8-3.19-1.34-6.43-1.94-9.66-5.21-28.13-10.27-56.29-15.65-84.39a807.32,807.32,0,0,1-11.92-86.35,8.28,8.28,0,0,1,.82-4c.31-.66,1.47-1,2.3-1.26.22-.08.86.45,1,.81,2.07,5.77,2.6,11.84,3.39,17.87,1.84,13.92,3.19,27.91,6.11,41.69,2.33,11,4,22.16,5.94,33.25,2.74,15.72,5.39,31.44,8.16,47.15,1.3,7.39,2.72,14.76,4.21,22.11.56,2.74,1.7,5.37,2.18,8.12,4.06,23.1,8,46.22,12,69.33,1.29,7.39,2,15,4.19,22.09C477.26,647,478.67,661,480.15,675c.83,7.92,1.48,15.85,2.76,23.73,1,6.47,1.35,13,1.76,19.56.91,14.48,1.49,29,3.78,43.39a136.51,136.51,0,0,1,2,23.77c-.2,11.25-.08,22.47.51,33.7.79,15-.4,30-1.72,44.94-1,11.72-.79,23.42-.63,35.13a2.05,2.05,0,0,0,.67,1.16c.79-.27,1.89-.48,2.24-1.09a38.69,38.69,0,0,0,2.92-6.3c2.45-7.1,4.72-14.25,7.11-21.36,2.25-6.66,4.8-13.22,6.8-20,2.66-9,5.07-18,7.33-27.15,3.84-15.45,8.35-30.78,8.93-46.85,0-.93.32-1.85.4-2.78,1.26-14.46,4.12-28.8,3.15-43.43a5.06,5.06,0,0,1,.3-1.34,1.49,1.49,0,0,1,2.07-1.24,1.81,1.81,0,0,1,1.09.85c2,4.38,2.06,9.11,1.76,13.75-.73,11.22-1.52,22.45-2.73,33.63a403.55,403.55,0,0,1-10.53,56.65c-2.9,11.36-5.66,22.77-9.91,33.73-4.76,12.25-8.28,24.88-12,37.47-.76,2.59-1.37,5.19-.73,7.93.43-.24,1.05-.36,1.21-.7q6.87-14.61,13.66-29.25,8.25-17.83,16.42-35.7c6-13.2,12.09-26.38,18-39.65a152.57,152.57,0,0,0,6-15.75c3.25-10.27,6.09-20.68,9.29-31a219.07,219.07,0,0,0,7.08-28.65c.85-5.09,1.62-10.2,2.7-15.25,2.26-10.57,3-21.33,4-32.06a79.72,79.72,0,0,0-.87-19.63c-.7-4.64-1.36-9.29-1.72-14a128.26,128.26,0,0,0-4.24-24.9c-3.4-12.2-6.48-24.49-9.8-36.7A221.65,221.65,0,0,0,551.6,567c-2.39-6.1-4.62-12.29-6.63-18.53-3.32-10.26-6.75-20.47-9.76-30.84-5-17.1-10.81-33.93-16.28-50.88-1.58-4.91-3-9.89-4.72-14.73-6.53-18.08-12.28-36.4-17.87-54.79-1.36-4.48-3.09-8.87-4.23-13.4-3.43-13.64-7.19-27.16-12.55-40.2-1.43-3.46-2.52-7.07-3.66-10.64-2-6.25-3.78-12.57-5.87-18.78-3-8.89-6.39-17.64-9.26-26.56C456,272.92,451.9,258,447.23,243.27c-5.09-16.09-9.23-32.46-17.39-47.39-.45-.82-.69-1.74-1.07-2.6-8.22-18.5-18.65-35.74-30.07-52.4a64.2,64.2,0,0,0-5.22-6.63c-8.79-9.74-17.54-19.51-26.52-29.06a57.91,57.91,0,0,0-19.2-13.92c-1.51-.65-4.11,1.23-3.93,2.91a41.81,41.81,0,0,0,1,6.92c1.32,4.5,3,8.9,4.45,13.35,3.23,9.8,6.47,19.59,9.58,29.42a29.19,29.19,0,0,1,1.75,8.21c0,4.75,1.2,9.25,2,13.86,1.79,10.15,3.37,20.33,5.69,30.39a58.27,58.27,0,0,1,.95,8.37c1,12.15,1.63,24.32,3,36.42a298,298,0,0,1,1.41,32.29c.13,31.88-1.85,63.73-1.18,95.63.25,12.19.58,24.35,1.73,36.49,1.25,13.08,2.54,26.13,4.67,39.11,2.88,17.58,5.48,35.21,8.14,52.83,1.05,6.95,2,13.92,2.91,20.9.64,5.11.66,10.32,1.61,15.37,2.78,14.74,5.87,29.43,8.92,44.12.47,2.28,1.41,4.46,2.06,6.71,4.29,14.87,8.73,29.69,12.78,44.61,5.17,19,9.43,38.23,16.32,56.72.49,1.31.74,2.71,1.1,4.07,2.52,9.52,4.68,19.15,7.66,28.52,3.56,11.17,7.06,22.31,9.66,33.77,4.36,19.19,10.2,38,14.78,57.15a6.25,6.25,0,0,0,.62,1.24c.52,1,1.45,1.32,2.3.5,1.34-1.29,2.45-2.81,3.66-4.23ZM78.79,80.09a10.39,10.39,0,0,0,2.42-1.49c2.24-2.6,4.86-2.64,7.5-1A99.06,99.06,0,0,1,98,83.94C105.68,90,113.1,96.38,120.35,103c8,7.33,14.94,15.43,21.89,23.6a16.14,16.14,0,0,1,3.18,4.58c2,5.48,6.51,9.07,9.66,13.68.39.57,1.62.56,2.46.83a4.29,4.29,0,0,0,.23-1.38c-1-5.11-2.45-10.2-5.9-14.06-6.23-7-10.82-15.31-18.1-21.38a4.11,4.11,0,0,1-1.22-2.43,4.88,4.88,0,0,1,.63-2.44c.08-.17.93-.14,1.34,0,3.2,1.2,5.39,3.69,7.45,6.21,2.38,2.91,4.69,5.86,8,7.72a3.73,3.73,0,0,0,2.3-.08,1.66,1.66,0,0,0,.16-1.29c-3.88-7.47-7.44-15.13-11.83-22.3a160.34,160.34,0,0,0-13.16-18.18c-7.64-9.28-16.8-16-29.5-17a129,129,0,0,1-23.5-4.06c-9.54-2.61-19.31-3.62-28.95-5.49A46.44,46.44,0,0,0,37.18,49c-.72,0-1.51.91-2.14,1.54a1.36,1.36,0,0,0,0,1.24c3.8,6.7,8.73,12,16.48,14.27,2.21.63,4.2,2,6.29,3.08,3.33,1.7,6.63,3.45,10,5.08C71.6,76,74.81,78.9,78.79,80.09ZM493.49,924c.64-.92.53-1.36-.3-1.12-.21.06-.28.61-.42.93Z" fill="inherit"/><path d="M490,503.39a19.27,19.27,0,0,1,2.27,3.32c5.47,12.91,11.1,25.77,15.3,39.18a10.92,10.92,0,0,1,.42,1.34c1.67,10.21,5.19,19.89,8.55,29.61a29.71,29.71,0,0,1,1,4.08c5.66,29.89,10.92,59.84,14.68,90a84.14,84.14,0,0,1,.5,8.4c.15,6.08.14,12.15,1.27,18.17a21.26,21.26,0,0,1-.11,5.57,3.33,3.33,0,0,1-2.38,3.07,2.85,2.85,0,0,1-3.22-2,29.09,29.09,0,0,1-1.06-4,128.82,128.82,0,0,1-1.37-14,129.91,129.91,0,0,0-1.9-20.94,19.24,19.24,0,0,1-.55-4.17c.36-9.42-2.26-18.51-3.09-27.79a23.57,23.57,0,0,0-.31-2.79c-1.78-8.7-4.57-17.17-5.42-26.08s-3.63-17.37-5.28-26.09c-.86-4.57-2.61-9-3.9-13.46-4.16-14.37-7.86-28.87-12.83-43q-3-8.61-5.92-17.24a1.23,1.23,0,0,1,.59-1.05A17.44,17.44,0,0,1,490,503.39Z" fill="inherit"/><path d="M384.26,155.59c.38.27.93.46,1.11.83a33.91,33.91,0,0,1,1.52,3.88c3.42,10.7,6.87,21.39,10.18,32.12a109.78,109.78,0,0,1,2.66,10.91c1.38,6.89,3.08,13.66,5.09,20.4a169.65,169.65,0,0,1,5.63,27.4c1.34,10.67,2.91,21.32,3.82,32.05a12.42,12.42,0,0,1-.76,4c-.08.27-.73.51-1.13.54a2,2,0,0,1-1.18-.42,2.29,2.29,0,0,1-.91-1,22.64,22.64,0,0,1-1.54-5.38c-.84-13.6-4.57-26.73-6.44-40.15a62.28,62.28,0,0,0-1.35-6.9c-6.15-24-10.49-48.51-19-71.9-.64-1.74-1.12-3.67.08-5.35C382.44,156.05,383.49,155.93,384.26,155.59Z" fill="inherit"/><path d="M422.24,348.28a3.94,3.94,0,0,1-1.18.55,1.86,1.86,0,0,1-1.13-.4,2.38,2.38,0,0,1-.87-1.05,92.46,92.46,0,0,1-4.91-27.31c0-.69.88-1.52,1.53-2.05.93-.74,3,.35,3.24,1.7,1.37,8.69,4.47,17.1,4.29,26A7.85,7.85,0,0,1,422.24,348.28Z" fill="inherit"/><path d="M471.41,806.92c-.31-.79-.93-1.63-.83-2.37s1-1.14,1.55-1.7c.22.23.61.43.64.68a2,2,0,0,1-.18,1.29A21.82,21.82,0,0,1,471,807Z" fill="inherit"/><path d="M860.12,581.83c1.68-3.81,3.29-7.66,5.12-11.4.29-.59,1.53-.89,2.38-1,1.08-.12,2.74,1.95,2.49,2.85a11.13,11.13,0,0,1-.74,2.65c-6.4,10.82-11.38,22.47-19.12,32.5a9.47,9.47,0,0,0-1.46,2.38c-3.49,9.26-9.27,17.2-14.49,25.47a44.35,44.35,0,0,0-3.27,6.17c-2.59,6.07-6.52,11.28-10.4,16.53-.73,1-1.73,1-2.18.22a4.76,4.76,0,0,1-.62-2.54,6.49,6.49,0,0,1,.94-2.6q8.68-15.15,17.42-30.26a17.74,17.74,0,0,0,1.95-3.7c1.74-6,5.55-10.75,8.88-15.78C851.65,596.32,856.47,589.44,860.12,581.83Z" fill="inherit"/><path d="M793.67,696.89c1.3-1.28,2.24-2.28,3.26-3.18a1.41,1.41,0,0,1,1.19-.28c1.06.38,1.62,1.24,1.21,2.1q-7.85,16.23-15.81,32.41a1.82,1.82,0,0,1-1,1,4.57,4.57,0,0,1-2.55.24,3.26,3.26,0,0,1-1.61-1.92,3.85,3.85,0,0,1,.05-2.7C783.53,715.16,788.71,705.86,793.67,696.89Z" fill="inherit"/><path d="M421.84,726.13c-4.06-4.18-7-8.8-6.12-15l-.5.12c2.92,2.78,4.55,6.37,6.14,10a5.81,5.81,0,0,1,0,5Z" fill="inherit"/><path d="M428.63,741.28c-3.31-2.38-5.18-5.3-3.53-9.51l-.48.11c2.88,2.54,4.49,5.54,3.55,9.5Z" fill="inherit"/><path d="M412.35,705.49a10.42,10.42,0,0,1-3.26-5.56c-.08-.43-.22-1.16,0-1.26a1.45,1.45,0,0,1,2.17.74c1,2,1.83,4,.67,6.19Z" fill="inherit"/><path d="M411.88,705.6c2.1,1.3,3.55,3,3.34,5.64l.5-.12c-2-1.34-3.54-3-3.37-5.63Z" fill="inherit"/><path d="M421.38,726.24c2,1.35,3.81,2.82,3.24,5.64l.48-.11c-2.17-1.26-3.76-2.84-3.26-5.64Z" fill="inherit"/></g></svg>