<?xml version="1.0" encoding="UTF-8"?><svg xmlns="http://www.w3.org/2000/svg" xmlns:xlink="http://www.w3.org/1999/xlink" height="1315.0" preserveAspectRatio="xMidYMid meet" version="1.0" viewBox="23.2 8.3 1238.0 1315.0" width="1238.0" zoomAndPan="magnify"><g data-name="Ginkgo 5" id="change1_1"><path d="M752.48,910a75,75,0,0,0-10.94,16.94c-11.66,25.09-20.9,51-25.3,78.41-3.33,20.72-2.58,41.39,3.39,61.7,3.09,10.51,6.26,21,10.62,31a290.15,290.15,0,0,0,50.87,78.57c23.2,25.87,47.3,50.92,70.54,76.75,13.64,15.15,26.33,31.14,39.51,46.71a9.75,9.75,0,0,1,2.7,7.17c-.23,4.16-.44,8.3-2.12,12.2-1.38,3.2-4.9,3.81-7.27,1.14a49.87,49.87,0,0,1-3.4-4.52c-9.34-13.29-18.44-26.75-28.06-39.82-6.48-8.81-13.53-17.22-20.63-25.56-13.94-16.4-28.14-32.57-41.7-49.31a574.28,574.28,0,0,0-61.48-64.94c-35.1-31.73-66.82-66.7-97.21-102.87a666.63,666.63,0,0,1-57.27-78.74c-6.51-10.56-13-21.17-18.4-32.48s-11.8-21.87-17.46-32.93a260.43,260.43,0,0,1-11.45-24.63c-6.14-15.95-17.34-26-33.32-31.5-17.93-6.15-36.11-10.89-55.1-12.24-9.41-.67-18.79-1.68-28.2-2.5-19.34-1.68-38.38.26-57.35,4.24-21.18,4.44-41.14,12.44-61.3,19.89-22.65,8.37-45.44,16.35-68.5,23.5-17,5.26-34.48,8.28-51.93,11.46-16.7,3-33.47,5.69-50.23,8.34-16.54,2.61-33,2.88-49.41-1.33-13.57-3.47-24-10.68-31-22.82-5.64-9.83-10.8-19.87-13.51-31-1.7-7-1.41-13.61,2.26-19.7a23.46,23.46,0,0,0,3.47-14c-.39-6.67,2.29-12.48,5.64-18.09,2.7-4.53,5.31-9.14,7.57-13.9,3.8-8,3.33-16.07-.45-24a71,71,0,0,0-8.89-14.42,47.86,47.86,0,0,1-10.05-22.5c-1.13-6.69-2.76-13.34-3.27-20.08-.68-8.93,1.78-12.17,10-15.57,3.1-1.28,6.69-1.47,9.27-4.31.17-.48.82-1.35.61-1.85-4.16-9.93-1.15-20-.26-29.9,1-11.72,8.4-19.93,20-21.59,11.82-1.69,16.28-9.11,15-20.9-.42-3.75-.83-7.51-1-11.28s0-7.62,2.93-10.57c2.06-2.07,2.42-4.58,2.23-7.31a36.13,36.13,0,0,1-.12-4.53c.36-7.24,3.32-11.1,10.13-13.24,3.08-1,7.07.12,8.86-3.82,1.35-3,.46-6,0-8.9-1.07-6.08.37-11.08,5.39-15.09,5.73-4.57,7.71-10.82,7.34-18.07a71.67,71.67,0,0,1,.37-12.43c.66-5.33,2.24-10.43,7.28-13.45,4-2.41,5-6.17,5.57-10.5,1.54-11,3.87-13.56,14.53-15.53,4-.74,7.18-2,9.21-5.63,2.51-4.44,6.38-6.14,11.36-5.75,4.55.35,8.11-1.63,10.73-5.18,6.62-9,15.85-9.49,25.52-7.59,11.8,2.3,21.72,8.46,30.57,16.4,6.21,5.57,11.35,12.09,16.41,18.72,21.54,28.22,41.73,57.43,62.32,86.34,3.51,4.92,7.25,9.67,11,14.4,1.11,1.41,2.22,3.12,5.05,3,1.71-2.07.88-4.66.27-7-2.88-10.95-5.74-21.91-8.91-32.78-5.6-19.21-12.26-38.07-19.07-56.88-6.42-17.75-12.58-35.6-18.14-53.62-3-9.7-4.62-19.84-6.66-29.82a27.59,27.59,0,0,1,1.55-15.59c2.44-6.33,6.4-8.76,13.26-7.73a28.83,28.83,0,0,1,7.47,2.4c2.74,1.23,5.29,2.88,8.49,4.66,5.32-2.94,11.07-5.64,17-4.56,3.72-2.54,3.93-6.24,5.47-9.2,3.3-6.35,8.51-8.07,15.1-5.05a17.53,17.53,0,0,1,6.94,5.67c1.34,1.82,2.49,3.79,3.92,5.54,4.7,5.82,8.35,8.53,14.46,1.4,1.88-2.2,4.77-3.68,7.41-5.09,10.61-5.69,20.32-4.7,29.43,2.88,2,1.68,3.87,3.56,6.13,5.67a13.27,13.27,0,0,1,12.89.49,5.46,5.46,0,0,0,7.89-2.14c6.51-11.76,17-10.87,27.75-8.9,4.91.9,9,3.78,12.78,7l9.47,8.09c7.9,6.73,16.2,7.06,25.11,2s17.86-9.83,26.81-14.69a58.51,58.51,0,0,1,7.09-3.53c9.11-3.43,17.81-3.11,25.4,3.7a19.92,19.92,0,0,0,8.71,4.89c5.87,1.45,9.66,5.61,12.08,11.08,1.67,3.8,3.22,7.67,5.17,11.33,7.55,14.19,19.68,17.27,33,8.5.95-.62,1.79-1.4,2.75-2,6.41-4,12.79-4.06,17.47,1.43,5.56,6.53,12.48,9.33,20.4,10.52,6.43,1,10.33,4.8,12,10.62,2.27,8.09,8.07,12.42,15,15.86,1.69.84,3.4,1.65,5.06,2.54,5.52,2.95,9.89,7.09,11.92,13.1,2.63,7.77,7.62,12.27,15.57,14.9,9.2,3.05,16.13,9.58,20.74,18.33,3.14,6,4.44,12,1.45,18.44a15.24,15.24,0,0,0-1,10.88c2,7.77-.56,14.91-4.45,21.61a219.59,219.59,0,0,1-38.91,49.83c-4.11,3.88-8,8-11.87,12.13A131.81,131.81,0,0,1,671,603c-7,5.16-13.46,11-20,16.66-26.57,23-52.62,46.55-76.25,72.62-10.14,11.2-20.46,22.28-29.86,34.09-10.57,13.28-20.32,27.19-25.47,43.78-3.33,10.72-4.41,21.63-2,32.4,3.47,15.45,6.35,31.17,12.29,45.88a399.89,399.89,0,0,0,18.81,39.91c5.2,9.61,10,19.45,15,29.11C589.56,967,623,1011,660,1052.66c7.77,8.75,15.81,17.27,23.52,26.08,13.7,15.68,29.14,29.6,44.08,44,1,1,2,2.28,3.78,1.79,1.07-1.59-.26-2.81-.86-4-9.6-18.46-16.88-37.92-24.61-57.18-6.08-15.15-9.32-31.07-12.51-47-6.61-33-12.35-66-12.72-99.84-.19-17.43,1.73-34.69,3.56-52,4.55-43,15.11-84.67,27.26-126a845,845,0,0,1,48.62-126.73,180.24,180.24,0,0,0,11.31-32c4.26-16,7.57-32.31,11.26-48.49a11.38,11.38,0,0,0,.39-3.37c-1.55-19.48.12-39.21-4.4-58.46a112.94,112.94,0,0,0-14.07-34.44c-4.8-7.68-9.27-15.59-15.13-22.56-9.12-10.82-20.14-19.29-32.45-26.19-5.92-3.32-11.87-6.61-17.68-10.13-29.52-17.9-60.91-31.59-93.66-42.34-12.19-4-24.27-8.33-35.63-14.42-14.07-7.55-27.2-16.36-37.81-28.45a86.79,86.79,0,0,1-9.61-12.57c-6.83-11.51-7.63-23.59-1.31-35.58,3.62-6.85,5.78-13.76,5.47-21.62-.45-11.22,4.34-20.17,14.58-24.8,11.07-5,16.46-13.93,20.15-24.59,4.63-13.39,12.1-25.09,21-36,4.59-5.64,10-9.17,17.53-8.21,5.31.68,8.6-1.74,10.54-6.55,1.31-3.26,3.25-6,7-6.72,2.48-.48,3.52-2.59,5-4.31,7.19-8.49,16.44-10.23,26.13-4.94,2.65,1.45,5.07,3.3,7.7,4.78,9.49,5.33,18.55,3.18,24.57-5.86,2.33-3.48,3.52-7.46,4.64-11.49a116.22,116.22,0,0,1,4.61-13.95c3.76-8.9,9.91-15.08,20.18-15.74,1.59-.11,3.09-.44,4-1.72,3.52-5.09,8.09-4.71,13.06-2.75a30.15,30.15,0,0,0,2.94.84c2.71-.63,4.11-2.32,5.28-4.34A29.75,29.75,0,0,1,742.09,47c4.73-4.06,9.87-5.32,15.71-2.67,2.74,1.25,5.39,2.76,8.22,3.77,5.84,2.1,10.29.9,14-4.15a68.56,68.56,0,0,0,5.44-9.88c3.42-6.85,7.75-13,13.86-17.68,8.22-6.34,17-8.09,26.25-2.38,5.67,3.52,12.17,4.27,18.13,3.62,7.39-.81,12.49,1.77,17.05,6.63,3.09,3.3,5.78,7,8.64,10.49,1.67,2,3.2,4.22,5,6.12,5.8,6,12.71,7.85,20.69,5.09,5-1.73,10-3.53,15-5.23a40.72,40.72,0,0,1,13.36-2.14c7.12,0,13.35,2.28,18.37,7.44,2.76,2.84,5.81,4.6,10,4.24,4.38-.37,8.08,1.54,11.31,4.37a13.58,13.58,0,0,0,9.3,3.42c15.18.13,22.83,10,28,22.5,1.41,3.42,1.74,7.32,2.25,11a35.26,35.26,0,0,0,3.36,11.92c2.78,5.25,5.9,6.4,11.07,3.92,2-1,3.85-2.42,5.89-3.37,6.23-2.92,11.54-1.82,16.26,3.32,1.77,1.92,3.37,4,4.49,5.35,3.56,1.89,6-1.44,8.42-.29,5.85,2.78,10.74.76,16-1.9a117.74,117.74,0,0,1,16.76-6.78c16.91-5.57,32.83-4.23,46.72,8a108.46,108.46,0,0,1,22.56,28.16c5.13,9,5.49,18.66,3.9,28.59-.53,3.34-1.15,6.69-1.47,10.06-.42,4.36.56,8.24,4.51,10.89,4.87,3.26,6.63,7.92,6.31,13.67-.1,1.81,0,4.31,1.07,5.38,5.32,5.24,6.6,12.62,10.49,18.61,4.31,6.64,3.94,13.66-.31,20.29-4.47,7-9.18,13.82-13.79,20.72-1,1.55-2.24,3.05-1.58,5.08,1.26,1.54,2.78.94,4.15.46,2.48-.85,4.92-1.85,7.36-2.84,9.77-4,18.21.84,19.73,11.26a9,9,0,0,1,0,2.26,13.79,13.79,0,0,0,3.83,11.41,12.24,12.24,0,0,1,3,11.59,25.28,25.28,0,0,0,2.38,17.57c3.87,7.79,3,15.37-.65,22.89a40.6,40.6,0,0,0-2.53,5.07c-1.8,5.74-1.74,11.18,3.43,15.44,1.16,1,2.31,1.95,3.43,3,6.81,6.12,9,13.72,7.13,22.58-.31,1.47-.69,2.94-1.08,4.4-3,11.32-2.48,22.22,2.28,33.17,5.93,13.64,6.75,27.83,1.49,42-2.25,6.05-5.12,11.8-12.34,13.67-1.68.43-3,2.13-4.53,3.25a8.11,8.11,0,0,1-7.46,1.54,39.64,39.64,0,0,0-4.36-1.19c-6.88-1.08-9.36.67-11.15,7.77-.19.73-.17,1.51-.37,2.24-3.24,12-11.63,16.19-23.35,11.62a57.46,57.46,0,0,1-5.44-2.85c-9.43,7.06-19.07,3.49-28.64-.09a38.67,38.67,0,0,1-12.37-7.87c-13-11.79-28.54-18.11-45.33-22-3.67-.85-7.48-1.36-11-2.69-17-6.51-34.72-10.29-52.64-13-19.42-2.93-38.9-5.49-58.6-5.08-26.36.56-51.71,5.47-75.4,17.61a163,163,0,0,1-29.47,11.55c-11.38,3.27-20.2,9.86-27.65,18.76a120.91,120.91,0,0,1-10.64,11.73,16.29,16.29,0,0,0-5.1,9.7c-2.37,12.6-4.79,25.21-7.68,37.7-6.84,29.53-18,57.59-29.93,85.36-14.6,34-27.86,68.52-38,104.16-8.51,29.8-15.83,59.87-20.27,90.54-4.15,28.8-7.43,57.72-5.63,86.91,1.24,20,4.47,39.77,7.65,59.52,1.14,7.08,2.52,14.13,4.08,21.12.53,2.38.33,5.41,3.69,6.78.91-9.08,1.67-18,2.71-26.95a128.35,128.35,0,0,1,8.71-33.9c8.18-19.94,17-39.53,29.83-57.06,7.19-9.77,15.39-18.62,23.63-27.44A403.29,403.29,0,0,0,860.44,722c6-18.7,10-38,13.14-57.33,3.27-20.12,6-40.32,9.24-60.45a155,155,0,0,1,8.95-33.86c8.86-22,24.41-37.84,44.61-49.54a40.49,40.49,0,0,1,6.16-2.85c10.38-3.81,18.24-1.82,25.48,6.36,7.58,8.56,10.06,9.25,20.39,5.44,2.83-1,5.6-2.26,8.35-3.5,6.16-2.79,12.69-2.64,18.89-1.1,7,1.76,11.59,6.85,13.58,13.94.92,3.26,1.41,6.66,2.5,9.87,2.06,6.06,4.89,7.73,11.07,7a12,12,0,0,0,2.22-.46c7.52-2.35,12.36.92,15.68,7.43.66,1.31,1.37,2.59,1.78,3.38,3,1.56,4.89-.61,7.09-.75,1.93-.12,4.12-.39,5.33,1.1,2.49,3.06,5.72,3.29,9.17,3.31s4.54,3.8,7.42,4.79a12.66,12.66,0,0,0,3.36-.43c5.42-2.25,10.79-3.66,16.2-.09,6.58,4.34,11.51,9.89,12.26,18.08.34,3.74,0,7.54,0,11.31,0,3-.3,6.09.25,9,1.12,5.95,5.54,9,11.59,8.1a41,41,0,0,0,8.63-2.61,90.94,90.94,0,0,1,17.55-4.33c18.47-3.18,33.24,13.68,31.09,29.85-.29,2.2-.6,4.39-1,7.22,9.72,1.9,12.81,10.61,18.17,17,2.61,1.42,5.18.12,7.74-.19a14.28,14.28,0,0,1,12.38,4.3c4.82,4.84,9.13,10.1,10.92,16.93a151.07,151.07,0,0,0,8.69,24.52c4.45,9.74,2.69,18.32-4.75,25.93a46.47,46.47,0,0,1-9.66,7.77,149.77,149.77,0,0,0-13.31,8.62c-4.62,3.43-8.63,7.48-8.44,13.93.13,4.25-2.25,7.07-5.36,9.43a85.76,85.76,0,0,1-21.56,12.34c-25.44,9.61-51.28,17.76-78.09,22.88-21.1,4-42,9.14-63,13.91a59.27,59.27,0,0,0-17.74,7.3c-1.51.92-3.28,1.89-3.17,4.86,2.45,1.79,5.56,1.55,8.35,1.16,8.58-1.2,17.16-2.56,25.66-4.27,7.75-1.56,15.44-3.51,23.08-5.54,10.2-2.72,20.45-5.35,30.48-8.62,21.56-7,43.3-13.12,66-15.47,9.39-1,18.72-2.43,28.1-3.47,7.91-.88,15.78-1,23.63,1.08a26.65,26.65,0,0,1,11.68,6.58c5.22,4.89,7.12,10.51,3.81,17.32-2,4.09-3.61,8.31-3.11,12.81,1.22,3.29,4.17,4.52,6.46,6.42s4.76,3.94,5.65,6.92c3.08,10.28,4.38,20.61.14,30.95-.85,2.07-2.28,4.16-2.31,6.26,0,4.59-2.48,7.81-5,11.1a28.83,28.83,0,0,0-5.22,10c-1.33,4.77-.59,9,3.15,12.42.84.77,1.72,1.48,2.53,2.27,12.72,12.48,13.8,29.93,2.77,43.94a51.61,51.61,0,0,1-11.72,10.59c-3,2-4.89,4.61-4.16,8.57,1.73,9.37-2.41,17.7-5.2,26.15-1.19,3.62-2.53,6.93-2.3,10.83a26.23,26.23,0,0,1-.62,7.86,14.21,14.21,0,0,1-7.3,9.63c-2.36,1.19-4.79,2.24-7.11,3.5-6,3.31-9.75,8.2-10.27,15.24-.11,1.51-.27,3-.45,4.51-.61,5.07-2.32,9.56-6.89,12.42-3.37,2.11-5.67,4.81-6,9-.21,2.4-1.88,4.07-3.87,5.3-4.19,2.6-4.71,6.31-3.84,10.83,1.56,8.16-.37,15.82-4.62,22.79-4.6,7.55-11,12.38-20.42,11.69-1.13-.09-2.27-.13-3.4-.11-9,.13-11.18,1.6-14,10.09-1.77,5.41-3.67,10.68-7.18,15.28-4.23,5.55-9.19,10.1-16.14,11.75-3.51.83-5.72,2.85-8.17,5.43-8.19,8.66-17.5,15.52-30.43,14.5a26.29,26.29,0,0,0-4.52-.11c-5,.53-8.61,3-9.92,7.93a85.9,85.9,0,0,0-2.26,12.24c-1.41,12.36-13.73,17.33-23.8,12.78a62.47,62.47,0,0,1-17.61-12.2c-9.1-8.77-15.94-19.21-21.69-30.27-18.29-35.2-38.15-69.5-58.19-103.71a772.57,772.57,0,0,0-52.53-77.92C874.93,993,862.23,981,849.29,969.39c-9.55-8.58-19.18-17.08-29-25.4-7.18-6.12-14.55-12-22-17.77a64.73,64.73,0,0,0-29.74-13.07C763.37,912.34,758.25,911.14,752.48,910ZM817,825.74c-4.51,1.59-6.16,5.71-8.3,9.4l-.9.83c-1.69,2.75-4.49,4.85-4.79,8.39l.15-.34c-1,.53-2.15.85-2.79,1.62q-10.08,12.21-20,24.56c-.64.79-1.12,1.88,1,2.61,3-2.4,6.24-4.89,9.31-7.62,3.65-3.27,7.08-6.78,10.67-10.11,1-.93,2.23-2.1,3.75.07-9,12.77-23.62,20.28-34.11,34.19a23.38,23.38,0,0,0,9.56-4c13-8.32,26-16.75,38.35-26,19.31-14.48,38.59-29,56.87-44.78,1-.9,2.18-2.24,3.93-.42-3.48,5-8.12,8.81-12.71,12.67-18.49,15.53-38,29.71-57.44,44-3,2.2-6.68,3.58-8.44,7.22l.29-.32a49.12,49.12,0,0,0-18.69,12.66,116.11,116.11,0,0,0,15.82-4.35c2.49-.83,4.9-1.69,7.5-.55l-.31-.31-20,9.8a123.57,123.57,0,0,0,17.93-2c15.63-2.54,31.18-5.75,46.9-7.49,33.35-3.71,66.67-7.77,100.16-10.32,26.35-2,52.69-3.76,79.08-4.82,9.87-.4,19.75-.09,29.5,2-6,.67-12,.89-18,1.05-7.54.2-15.11.06-22.63.57-35.37,2.42-70.76,4.51-106.06,8.13-36.41,3.73-72.7,8.11-108.78,14.25a29.34,29.34,0,0,0-11.54,3.89,333.31,333.31,0,0,1,66.2,11c40.67,10.75,79,27.42,115.64,48,5.57,3.13,10.75,7,16.12,10.49A3.7,3.7,0,0,1,992,974.6l.06.07c-3.18-4-8.27-5-12.35-7.57C958,953.32,934.67,942.69,911,933c-19.85-8.13-40-15.58-61.07-20-12.16-2.54-24.36-4.86-36.58-7.08-3.76-.68-7.69-1.37-13.13.35,8.17,4.07,15,7.1,21.45,10.73,37.66,21.14,68.71,49.94,95.8,83.26,1.63,2,2.71,4.47,4,6.71l.31-.22c-3.91,1-5.23-2.37-7-4.46-8.69-10.47-17.76-20.59-27.41-30.18-25.93-25.75-54.4-47.86-88.45-62-1.35-.56-3.18-1.09-3.76-2.18-2-3.79-5.39-3.75-8.78-3.59-3.09.15-6.51-.91-9.49,1.61,1,.81,1.49,1.47,2.1,1.63,15.85,4.06,30.45,11.11,44.77,18.78a81.45,81.45,0,0,1,10.3,6.94c.75.55,2.91,1.51.63,3.48-11.33-6-22.17-13.37-35-16.5,6.94,6.52,14.32,12.36,21.44,18.49,10.59,9.11,21.12,18.31,31.45,27.71,16.22,14.76,31.69,30.22,44.37,48.29,17.13,24.42,34.2,48.85,48.91,74.87,13.93,24.65,28.71,48.8,41.77,74,6.08,11.72,12.58,23.23,19.2,34.65a85.81,85.81,0,0,0,18.27,21.5,35.53,35.53,0,0,0,16.15,7.73c6.72,1.47,12-2.11,13.46-8.82.82-3.68,1.08-7.49,2-11.14,2.47-10.14,7.27-14.38,17.59-13.67,12.66.86,21.58-5.25,29.3-13.93,2.37-2.65,4.51-4.74,8.09-5.55,10.64-2.4,16.4-10.1,20.3-19.56,1-2.44,1.46-5.09,2.39-7.56,2.49-6.67,7.12-10.51,14.48-10.51,1.51,0,3,0,4.53,0,10.51-.08,16.93-4.39,20.77-14.06,1.84-4.65,2.8-9.63,1.71-14.45-1.75-7.72.9-13.22,7-17.65.45-.33.4-1.36.68-2.42-2.53-4.88-6.72-8.7-10.65-12.73-17.75-18.19-37.63-33.76-58.7-47.9-28.56-19.16-58.6-35.83-88.19-53.28-20.17-11.89-40.68-23.12-62.25-32.33-3.71-1.58-7.67-2.86-11.68-7.14,6.52,1.14,11.28,3.22,16,5.23,21.62,9.13,42,20.69,62.16,32.52,29.32,17.15,59.07,33.61,87.2,52.73,18.45,12.55,36.32,25.82,52.13,41.66,5,5.06,10.16,10,15.1,14.92,7.74-3.08,12-8,12.21-16.32.25-10.64,6.1-17.71,15.62-21.55,7.43-3,10.59-8.13,9.84-15.84-.42-4.28.71-8,2.3-12,3.17-7.95,6.26-16.1,5-25-.7-5,1.52-8.69,5.45-11.64a91.22,91.22,0,0,0,8.76-7.14c8.38-8.07,10.62-17.82,7.79-29.05-1.48-5.87-5.17-9.91-9.6-13.59-5.63-4.68-6.51-10.75-4.77-17.46,1.17-4.46,3.59-8.27,6.35-11.91,1.54-2,3.73-3.91,2.58-7.54a47.47,47.47,0,0,0-6.62-3.28c-15.08-4.91-30.34-9.18-46.08-11.4a44.1,44.1,0,0,1-14.72-4.14c25-.38,46.32,7.55,67.83,13.54a8.85,8.85,0,0,0,4.47-5.38c2.26-7,1.17-14.2,0-21.28-.84-5.27-4.61-8.48-8.8-11.26a19.93,19.93,0,0,1-1.79-1.39,9.2,9.2,0,0,1-3.16-10.17,85.12,85.12,0,0,1,3.57-10.71c2.11-4.9.86-8.8-2.83-12.22a22.53,22.53,0,0,0-9.72-5.51,57,57,0,0,0-21.37-1.1c-9.74,1.14-19.47,2.51-29.23,3.52-21.15,2.18-41.52,7.74-61.62,14.29-11.13,3.63-22.31,7-33.68,9.72-7.69,1.86-15.36,3.79-23.08,5.54-9.57,2.17-19.2,4.09-29,4.41-3.41.12-6.78,0-9.84-1.92a4.93,4.93,0,0,1-1.65-6.86c1.7-2.63,4.22-4.31,6.81-5.84a63.34,63.34,0,0,1,17.74-7.3c19.46-4.58,38.79-10,58.47-13.25,24-4,46.92-11.24,69.9-18.63,11.17-3.59,21.85-8.34,31.46-15.25,2.8-2,5.52-4.1,5.54-8,0-8.14,5.13-13.12,11.06-17.42,4.27-3.1,8.78-5.91,13.32-8.6a40.68,40.68,0,0,0,8.64-7.25c5.48-5.79,7-12.21,3.65-19.72a146.43,146.43,0,0,1-9-25.58c-1-4.17-3.5-7.48-6-10.83-4.08-5.61-8.87-9-16.39-6.77-4.41,1.34-7.87-.48-10.49-4.56s-5.91-7.58-8.78-11.19c-6.52,2.24-6.53,2.22-10,5.61-15.1,14.89-32,27.59-48.81,40.44-19.22,14.71-39.73,27.5-60.16,40.4-32.88,20.78-66.69,40-100.78,58.66-2.13,1.16-4.1,3.56-7.39,2.09,2.46-3.66,6.34-5.2,9.8-7.16,38.1-21.58,76-43.41,113-66.95A780.81,780.81,0,0,0,1167.33,674c6.69-5.5,12.8-11.69,18.7-17.13.72-4.9,1.38-9,1.9-13.06a22.66,22.66,0,0,0-25.47-25.64A67.18,67.18,0,0,0,1146,622a52.57,52.57,0,0,1-9.69,3c-8.86,1.57-15.75-3.33-17.19-12.18-.48-2.95-.16-6-.18-9,0-3.78.3-7.58-.07-11.31-.65-6.53-4.78-10.88-9.95-14.41-4-2.72-7.84-1.55-11.81.14s-8,2-11.36-1.78c-1-1.15-2.21-2.35-3.81-2.08-4.59.76-7.83-1.75-10.8-4.72-1.83.72-3.24,1.2-4.57,1.83s-2.55,1.43-3.88,2.19c-3.38,20-12.47,37.32-22.26,54.38a95,95,0,0,1-5.8,8.35,2.5,2.5,0,0,1-2.94.95l.28.21c.42-3.91,2.72-7,4.67-10.17,6-9.66,10.64-20,15.37-30.22a88.19,88.19,0,0,0,6.2-20.49,18.93,18.93,0,0,0-1.21-11c-2.17-5.35-4.67-6.74-10.5-6-1.49.18-3,.61-4.46.73-7.16.57-11.44-2-14-8.72-1.19-3.15-1.66-6.56-2.55-9.83-2.48-9.14-7.6-13-17.15-13.23a26.35,26.35,0,0,0-12,2.53,58.71,58.71,0,0,1-11.62,4.31c-7.42,1.63-14.34.93-18.7-6.62a16.72,16.72,0,0,0-2.09-2.67c-4.77-5.28-10.66-6.93-17.42-5a37.68,37.68,0,0,0-8.29,3.53c-19.14,11.11-33.84,26.21-42.29,47-4.44,10.92-7,22.29-8.88,33.82-3.24,20.09-5.88,40.27-9.25,60.33-3.68,21.93-7.93,43.79-15.61,64.74-4.53,12.37-9.57,24.57-14.78,36.68-7.46,17.35-17.1,33.57-26.69,49.79-1.68,2.85-4.42,5.28-4.07,9.07Zm19.7-363.58-.84.74a11,11,0,0,0-3.06,1.43c-13.33,12.38-25.89,25.41-34.43,41.73-.56,1.08-1.9,2.35.17,3.53a16.28,16.28,0,0,0,2.49-2.25c10-13.75,23.61-21.72,39.78-26.34,7.92-2.27,15.36-6.24,23-9.49,4.51-1.92,8.88-4.19,13.47-5.89a183,183,0,0,1,63.18-11.33c20.09-.11,39.94,2.24,59.72,5.31,17.54,2.73,34.87,6.35,51.51,12.84,3.48,1.36,7.29,1.89,11,2.7,17.59,3.92,33.79,10.64,47.37,22.89a43.18,43.18,0,0,0,16.7,9.21c7.21,2.2,14,3.48,19-2.87,4-.12,6.24,2.3,9,3.52,9.11,4.13,15.54,1.13,18.08-8.44.58-2.18,1-4.41,1.36-6.63.46-2.49,3.86-3.61,3.3-6.47a9.29,9.29,0,0,0-2-1.61c-32.27-12.88-64.85-24.74-99.26-30.71-3.72-.65-7.4-1.47-11.09-2.29a53,53,0,0,1-12.88-4.19c15.38-.12,27.86,3,40.3,5.83,30.24,6.88,59.4,17.17,88,29,4.86,2,9.62,4.34,14.94,5,3-.95,4.19-4.53,7.45-4.92,5.34-.64,7.54-4.67,9.25-8.92a51,51,0,0,0,3.91-17.56c.3-9-2.15-17.26-5.45-25.28a48.18,48.18,0,0,1-2.27-29.95c.59-2.57,1-5.19,1.59-7.77,1.61-7.25-.12-13.45-5.73-18.45-1.13-1-2.24-2-3.43-3-4.65-3.58-5.9-8.48-5.72-14.06a20.53,20.53,0,0,1,2.79-9.67c4.14-7.36,5.12-14.73,1-22.65a24.39,24.39,0,0,1-2.44-16.53c1-4.41.4-8.15-2.74-11.52a15,15,0,0,1-3.87-11.48,15.9,15.9,0,0,0,0-3.38c-1.21-7-6.55-9.92-13.23-7.35-3.52,1.35-7,2.78-10.59,3.93-2.66.84-5.23.55-7.2-1.82s-1.85-4.89-.33-7.34c3.19-5.13,6.46-10.2,9.75-15.25,2.27-3.48,4.71-6.84,6.92-10.36,2.84-4.54,3.3-9.41.22-13.88-4-5.89-5.13-13.37-10.61-18.54-2.15-2-2.71-5.4-2.25-8.51.69-4.67-1.12-8-4.91-10.6-4.49-3.09-5.93-7.69-5.51-12.89.37-4.5,1-9,1.64-13.45,1.31-8.47.54-16.6-3.72-24.15a102,102,0,0,0-21.06-26.48c-12.88-11.42-27.56-13-43.35-7.21-5.3,2-10.54,4.09-15.77,6.24-10.23,4.2-10.22,4.23-19.46,3.07-4.35,2.41-7.52,6.18-10.65,10-20.56,24.67-40.73,49.62-58.3,76.58-5.56,8.52-12.06,16.43-18.18,24.59-1.12,1.51-2.39,3-4.65,2.32l.28.23c10.61-17.88,23.61-34.13,35-51.45,12.94-19.59,29.1-36.66,43.36-55.21,1.56-2,4-3.57,3.92-7.13-1.56-2.06-3.24-4.55-5.2-6.81-3.66-4.24-6.63-4.7-12-2.07-2,1-3.91,2.3-6,3.24-6.65,3-11.44,1.5-15.35-4.81a32.17,32.17,0,0,1-4.35-12.76c-.56-4.1-.83-8.41-2.36-12.17-4.5-11.06-11.27-19.79-24.75-19.69a16.24,16.24,0,0,1-11.3-4.38c-2.31-2-5-3.65-8.19-3.28-5.9.68-10-2.19-13.94-6.06-5.24-5.16-11.82-6.49-18.87-5.35a83.56,83.56,0,0,0-10.95,2.76c-4.68,1.43-9.26,3.19-13.93,4.68-7.48,2.39-14.09.54-20.14-4.21-3.32-2.61-5.78-5.91-8.37-9.16a131.41,131.41,0,0,0-10.35-12c-4.22-4.13-9.07-4.89-13.9-1,0,4.09.1,7.84,0,11.59s.8,7.9-1.77,13.16c-3.89-9.8.43-19.52-5-27.92-4.12,1-7.28-.67-10.6-2.72-8.09-5-14.58-4.34-21.89,1.38A45.33,45.33,0,0,0,789.65,36c-1.67,3.38-3.15,6.92-5.29,10-5.34,7.66-12.17,9.6-20.78,6.26-1.75-.68-3.36-1.73-5.09-2.47-7.7-3.27-11.68-2.47-16.61,4.36a104.46,104.46,0,0,1-9,11.18c22.86,58,26.08,68,26.3,81.79-2.84-2.36-3.32-5.8-4.13-9-3.83-15-8.94-29.59-14.36-44.09a239.22,239.22,0,0,0-11.2-26c-1.78-3.45-3.87-6.58-9.12-6.06-.92,1.09-2.14,2.47-3.29,3.91s-2.83,2.61-4.85,2.3c-9.25-1.44-14,4.3-17.41,11.38C692.72,84,691.6,88.84,690,93.48c-1.22,3.56-2.07,7.3-3.76,10.62-6.64,13.06-19.73,16.9-32.37,9.72-3-1.68-5.71-3.7-8.7-5.29a15.55,15.55,0,0,0-13.18-.68c-4,1.56-6.46,4.94-7.46,9.65,12.24,10.21,22.83,22,33.11,34,4.89,5.73,9.35,11.84,13.82,17.91.92,1.26,2.66,2.88.81,4.9-3.62-2.33-5.67-6-8.24-9.24a377.12,377.12,0,0,0-33.34-37c-3.71-3.56-7.26-7.63-12-8.51a5.37,5.37,0,0,0-4,3.41c-2.75,6.78-7.43,10.24-15,9.1-5.43-.82-9.47,1.67-12.82,5.66-8.07,9.58-15,19.87-19.62,31.6-2.08,5.25-4.28,10.47-6.68,15.59A26.31,26.31,0,0,1,549.2,197.1c-2,1.08-3.92,2.27-5.91,3.36-8.47,4.62-12.61,11.87-12.11,21.37a39.81,39.81,0,0,1-6.27,23.66c-2.48,4-3.09,8.43-3.24,13-.29,8.78,3.19,16.09,8.39,22.88,11.26,14.7,25.8,25.27,41.94,33.9,15.74,8.4,32.84,13.27,49.55,19.15a425,425,0,0,1,69.92,31.86c10.16,5.8,20.29,11.66,30.42,17.5a115.94,115.94,0,0,1,25.8,20.13c11.14,11.56,18.85,25.39,26.48,39.3,1.2,2.2,1.26,5.28,4.24,6.32-.4,2.69-.06,5.14,2.32,6.9-.06,5.76,2.37,11,3.25,16.58.84,5.32,1.31,10.69,2.18,18,3.49-7.08,3.49-12.75,3.32-18.28-.29-9.42-1.1-18.82-1.62-28.23a103.86,103.86,0,0,0-2-14.54c-3.43-17.4-7.78-34.57-12.87-51.55-.39-1.32-1.22-2.78,1.41-3.81,2.13,3,2.94,6.58,4,10.12,4.44,15.21,8.13,30.6,11.31,46.13.26,1.29.37,3.17,3.15,2.64,1.3-2.07,1.11-4.71,1.15-7.23.25-15.47.38-30.94.69-46.4,0-1.86-1.12-4.66,2.17-5.22,1.49,1.1,1.34,2.65,1.35,4.08,0,10.57.51,21.16-.12,31.69-.81,13.46.06,27.22-5.52,40.1-.85,1.95-.77,4.48-.54,6.69a178.9,178.9,0,0,1,.26,29.37c0,.47.8,1,1.23,1.47,1.71-.21,2.5-3.08,5.34-1.32-1.29,4.89-3.76,9.41-6.18,14a20.55,20.55,0,0,0,.43,2c0,.13.59.25.6.24.61-1.39-.59-1.8-1.34-2.46l3.48.81c16.88-26.49,39.64-47.42,64.12-66.41s49.77-37.49,79-49.36c-3.58,4.35-8.34,7.12-13.09,9.79a490.38,490.38,0,0,0-44.64,28.86c-12.89,9.21-25.73,18.51-37.26,29.44C841.25,456.22,838.1,458.44,836.73,462.16Zm-323,347.22c-.62,1.36-.92,2.68.32,3.93,1.41-1.49.18-2.57-.53-3.73-.34-2.62-.61-5.25-1-7.86-2.53-15.44.13-30.22,6.73-44.11a153.23,153.23,0,0,1,20.6-32.45c10.66-12.74,21.73-25.16,32.94-37.41,25.53-27.92,53.66-53.11,82.42-77.62C667.53,599.62,681,590.29,691,577.26a32.26,32.26,0,0,1,4.14-3.85c15.85-14.3,28.71-31,39.42-49.38a52.36,52.36,0,0,0,4.88-11.39c1-3.53,1.38-7.4-1.61-10.38-3.93.4-5,3.59-7,5.68s-3.82,4.67-5.84,6.92-4.18,4.36-6.3,6.52-4.22,4.32-6.36,6.45c-1.87,1.87-3.77,3.71-5.68,5.54q-3.27,3.15-6.56,6.26c-2.18,2.09-4.36,4.19-6.56,6.25s-4.44,4.11-6.68,6.13-4.46,4.08-6.79,6c-2.14,1.77-4,4.18-9.08,4.66,3.5-3.75,5.62-6.27,8-8.51,8.51-8,17.15-15.95,25.65-24,10.42-9.89,20.54-20.07,29-31.71,2.44-3.35,4.48-7,6.71-10.47,1.78-2.81,1.54-5.6.33-8.62-3.9-9.73-10.93-16.58-20.6-19.78C711.35,456.69,706,451.44,703,443c-2-5.65-6-9.47-11.4-12-1.37-.64-2.75-1.25-4.07-2C680.2,425,673.29,420.6,671,411.56c-1.32-5.26-4.94-8.22-10.64-8.47-3.75-.16-6.81-3.29-11.23-2.87a19.15,19.15,0,0,0-3.14,2.67,157.44,157.44,0,0,0-9.63,12.58c-21.49,33.32-42.76,66.78-60.45,102.34-3.36,6.76-6.69,13.54-10.16,20.24-.9,1.74-1.31,4.11-5,4.66,10.91-26.4,24.41-50.72,38.61-74.67s29-47.53,45.27-70.28c-1.74-2.27-2.9-4.26-4.49-5.78-4.51-4.28-7.72-4.48-13.16-1.06-1.91,1.21-3.67,2.66-5.58,3.87a21.27,21.27,0,0,1-9.63,2.94c-12,1.15-20.46-3.92-25.92-14.34-2.09-4-3.83-8.2-5.68-12.33-2-4.33-4.81-7.88-9.6-8.9-4.29-.92-7.45-3.26-10.58-6.1-5.61-5.09-12.28-5.37-19.13-3.14a44.12,44.12,0,0,0-7.1,3.5c-9,4.83-18.06,9.47-26.83,14.64-11.12,6.56-21.43,6.21-31.27-2.36-2.56-2.23-5.19-4.38-7.74-6.63a34.6,34.6,0,0,0-9.37-6.26c-5.42-2.26-11-2.29-16.69-1.52-4.76.64-6.79,4.37-9.19,7.73-.22.31-.45.6-.7.89-3.28,3.77-7,5.51-12,3.2-2-.9-3.91-2.43-6.25-1.69-1.9.78-3.54,1.66-4,3.47,1.73,16.77,3.57,33.28,5.11,49.81,3.94,42.13,9.76,84,17.85,125.51q4.54,23.34,8.88,46.71c.46,2.51,1.9,5.23-.29,7.73-2.29-3.61-3-7.75-3.88-11.76C431,556,425.14,526,420.64,495.75c-5.17-34.73-9.47-69.58-12-104.62a178.54,178.54,0,0,0-2.51-20.23,20.92,20.92,0,0,0-27.45-16.22A28.79,28.79,0,0,0,368.05,361a51,51,0,0,1-5.08,4.46,7.14,7.14,0,0,1-8.48.19,30.26,30.26,0,0,1-9.37-9.67c-1.86-2.87-3.92-5.49-7.2-7-3.77-1.71-6.77-1-8.68,2.4a22.19,22.19,0,0,0-1.76,4.17c-1.82,5.73-5.3,9-11.69,8.25a8.32,8.32,0,0,0-6.39,1.67c-4.56,3.59-9,2.95-13.56-.08-3.14-2.09-6.35-4.09-10.28-4.46s-6.71,1-8.08,4.66A25.27,25.27,0,0,0,276,379c1.7,10.05,3.31,20.15,6.52,29.84,5.91,17.92,11.78,35.86,18.3,53.56a893.73,893.73,0,0,1,26.73,85.31c1.61,6.23,3,12.44,1,18.6-3,1.81-5.35,1.18-7.55-.76A85.29,85.29,0,0,1,308.48,551c-10.34-14.42-20.46-29-30.86-43.38Q258,480.52,238,453.72c-7.32-9.75-16.16-17.93-27.19-23.52a48,48,0,0,0-19.46-5.44c-4.3-.21-8.3.74-11.58,3.64a31.46,31.46,0,0,0-4.6,5c-1.23,1.66-4.07,2.39-3.33,5.27,41.46,32,41.46,32,47.26,42.1-4.52-2-7.14-5.12-10-7.84a249.9,249.9,0,0,0-33.6-26.83c-5.27-3.48-10.59-7.22-17.81-7.31-4.2,6.69-9.59,11.3-18.1,11.52-3.35.09-6.2,2.78-7.15,6.45a25.08,25.08,0,0,0-.83,5.58c-.17,5.3-2.23,9.45-6.78,12.32-4.23,2.67-5.61,7-6.14,11.59a54.12,54.12,0,0,0-.24,10.18c.65,9.26-1.87,17.1-9.42,22.95a8.48,8.48,0,0,0-3.43,7.95c.49,4.82,1.08,9.63,1.69,15.06a152.84,152.84,0,0,1,33,7.91,372.79,372.79,0,0,1,65,31.77c4.75,2.87,9.85,5.57,13.1,10.44l.29-.28c-5.73.08-9.69-3.89-14.1-6.51a519.16,519.16,0,0,0-46.15-24,193,193,0,0,0-39.51-13.57A79.71,79.71,0,0,0,102,546.47a34.82,34.82,0,0,0-6.75.69c-5.87,1.17-8.28,4.09-8.5,10.16-.15,4.08,1.54,8.65-1.56,12-3.86,4.17-3.56,8.78-3.12,13.75s1,9.81.63,14.66c-.7,9.17-5.51,14.37-14.36,16.52-1.83.45-3.79.46-5.55,1.07-5.94,2-10.58,5.71-13.29,11.52-1.34,2.87-3.55,25.7-2.75,28.76A50.15,50.15,0,0,1,48.32,661c.68,4.56-.62,6.85-5.08,8.88-2.39,1.09-5,1.78-7.4,2.76-6.49,2.61-8.45,5.07-7.61,12.06,1.16,9.72,2.61,19.5,6.21,28.67,3.42,8.74,9.18,15,18.71,18.22,13.59,4.56,27,9.46,41.07,12.53,8.1,1.77,16.29,3.16,24.36,5.07,5.07,1.2,10.43,1.75,15,4.94-1.55,1.18-3,.62-4.39.38-24.55-4.17-49-8.85-72.38-17.73-2.31-.88-4.75-2.82-7.24-.11a27.13,27.13,0,0,0,1,3.22c4.45,10.4,3.93,20.57-1.41,30.5-1.78,3.32-3.61,6.63-5.65,9.8-3.76,5.86-6.24,12-5.68,19.16a18,18,0,0,1-3,11.83c-4.88,7.24-4.34,15-1.83,22.83a133.91,133.91,0,0,0,11.91,25.61c6.4,11.09,15.92,17.67,28.3,20.84,15.31,3.93,30.65,3.72,46.05,1.37,17.14-2.62,34.27-5.34,51.32-8.48s34.27-5.82,50.8-11.15c22.95-7.41,45.73-15.39,68.49-23.38,21-7.36,41.55-15.88,63.47-20.39,17.48-3.59,35.06-5.36,52.86-4.24q19.2,1.2,38.34,3.21c13.14,1.4,26.14,3.71,38.68,8.09,6.05,2.11,12.1,4.2,18.19,6.2,1.18.39,2.75,1.73,3.95-1.12-2.38-3-4.68-6.16-8.74-7.79-1.27-.51-2.14-2-3.18-3.06l-1.14-.92c-3.86-7-10-12-15.53-17.64-5.81-5.93-11.87-11.62-17.65-17.58-3.41-3.51-6.5-7.33-9.66-11.08-.34-.4-.18-1.21-.29-2.15,3.26.82,4.86,3.46,7,5.38s4.29,4.25,6.44,6.37,4.32,4.21,6.48,6.33c1.88,1.85,3.77,3.7,5.63,5.57,2.14,2.13,4.23,4.31,6.38,6.43s4.25,4.29,6.51,6.29c2,1.81,3.7,4.26,8.4,6-3.49-7.25-7.54-11.6-11.39-16-22.86-26.2-43.61-54-63.57-82.43-22.12-31.48-43.47-63.5-65.18-95.27-5.32-7.79-10.89-15.41-16.07-23.28-2.69-4.08-4.82-8.52-7.1-12.85-.24-.45.29-1.31.47-2,3,1.85,4.49,5,6.37,7.69q37,53.56,73.75,107.23c21.29,31.18,43.57,61.61,67.86,90.52C490.56,797.6,499.9,809,508.35,821c.88,1.26,1.49,3.36,4.38,2.44-1.74-4.75-3.2-9.39-5.15-13.8-1-2.34-1.58-5.1-3.89-6.76l.37.38a13.1,13.1,0,0,0-1-6.62c-16.52-49.12-26.06-99.95-36.59-150.52-1.82-8.77-3.24-17.78-2.13-26.94a90.92,90.92,0,0,1,3.06,11.94c1.4,7.41,2.49,14.88,4,22.27,3.2,15.51,6.71,31,9.91,46.47A860,860,0,0,0,506.05,794c1.52,4.65,3.33,9.21,5.08,13.79A2.61,2.61,0,0,0,513.75,809.38Z" fill="inherit"/><path d="M816.6,826.18c2.17-.12,3.19-1.82,4.29-3.28,10-13.24,20.72-25.92,29.77-39.85,1.43-2.2,2.79-4.5,5.29-5.77,1.78,2-.11,3.5-.92,4.92C847.72,795,837.76,806,829.18,817.88c-5.25,7.31-11.76,13.73-15.52,22.08l.33-.21c-2.81.44-3.83,3-5.48,4.76-2.14,2.28-3.69,1.17-5.32-.49l-.15.34c3.42-1.76,4.82-4.67,4.79-8.39l.9-.83c5.32-.88,6.95-5,8.3-9.4Z" fill="inherit"/><path d="M836.73,462.16c8.85-5.61,17.67-11.27,26.56-16.82a131.22,131.22,0,0,1,19.23-10.5c-1.69,4.66-4.94,5.88-7.65,7.5-11.57,6.94-23.18,13.79-33.86,22.09a5.92,5.92,0,0,1-3,1.38c-1.9.12-2.54-1.12-2.15-2.91Z" fill="inherit"/><path d="M493.42,819.74c1.37,1.33,2.28,2.77.95,4.66-8.15-4.19-8.85-4.81-12.57-11.58,4.18,1.62,7.91,2.68,10.47,6Z" fill="inherit"/><path d="M174.53,475.67c42.93,33.76,85.9,67.52,123.64,107.27,50.23,52.9,86.91,96.35,95.75,112.43-3.14,1.59-3.9-1.48-5.07-2.9-11.49-14-22.6-28.29-34.27-42.11-41-48.5-85.06-93.88-134.76-133.6-14.43-11.53-28.37-23.68-42.51-35.56-1.42-1.19-2.74-2.48-4.1-3.73Z" fill="inherit"/><path d="M383.59,630.73c-4.74-4-6.41-8.2-8.41-12.1a706.58,706.58,0,0,1-46-111.88c-7.07-22.69-14.69-45.21-20.72-68.22a67.64,67.64,0,0,1-2.73-14.5c5.4,7,5.38,13.14,7.3,18.51,2,5.67,3.36,11.59,5.06,17.38s3.4,11.59,5.24,17.35,3.89,11.42,5.74,17.17,3.47,11.57,5.34,17.31q3,9.15,6.24,18.2c2.05,5.68,4.23,11.31,6.42,16.94s4.44,11.23,6.75,16.81,4.66,11.13,7.07,16.67,4.81,11.08,7.38,16.54,5.45,10.78,8,16.24C378.76,618.43,382.22,623.37,383.59,630.73Z" fill="inherit"/><path d="M326.1,674.84C348.53,689,457.66,786,471.56,804.09c-3.26.59-4.87-1.39-6.53-3-10.73-10-21.25-20.3-32.16-30.14q-39-35.18-78.39-70c-7.9-7-16.38-13.29-24.56-19.94C328.25,679.71,326.05,678.7,326.1,674.84Z" fill="inherit"/><path d="M302.38,739.81c7.8-.37,14.75,3,21.72,5.54,49.51,18.25,97.65,39.58,143.9,65,3.56,2,7.61,3.36,10,7-1,1.89-2.3,1.41-3.58.65-21.38-12.75-43.81-23.51-66.38-33.83-29.08-13.29-58.4-26.1-88.7-36.48-5-1.71-9.82-3.81-14.65-5.88-.87-.37-1.4-1.53-2.08-2.32Z" fill="inherit"/><path d="M390.58,615.33c4.74,3.58,6.24,9.19,8.65,14.15a1529,1529,0,0,0,77.85,140.18c1.35,2.16,3.56,3.9,3.57,6.84-1.69,1.87-2.68,0-3.41-.9a57.24,57.24,0,0,1-4.56-6.45c-28.16-45.5-54.61-91.95-77.62-140.29-2.07-4.34-5.07-8.5-4.21-13.78Z" fill="inherit"/><path d="M593.44,539.93a2.74,2.74,0,0,1,.39,3.46c-1.91,4.09-3.8,8.19-5.89,12.19-15.15,29.06-28.61,58.9-41.66,88.94-6.76,15.56-12.48,31.47-17.71,47.58-1.36,4.18-1.87,8.86-5.29,12.36-2.1-2.78-.5-5.13.22-7.52a582.84,582.84,0,0,1,27.87-72.68c11.37-25,22.81-50,35.64-74.31C588.86,546.44,590.15,542.53,593.44,539.93Z" fill="inherit"/><path d="M529.25,456.84c-.54,3.33-.83,6.72-1.67,10-8.16,31.71-14.91,63.73-20,96.08-2.26,14.48-3.57,29.12-5.33,43.69-.25,2.15.26,4.55-1.8,6.26-2.18-1.06-1.41-3.07-1.33-4.65a463.41,463.41,0,0,1,7.47-61.58c4.62-24.77,9.33-49.53,15.76-73.92,1.24-4.7,3-9.27,4.6-13.89a2.5,2.5,0,0,1,2.53-1.74Z" fill="inherit"/><path d="M233.26,790.16c9.5.85,17.4,1.32,25.24,2.3,30.31,3.77,60.61,7.41,91.27,6.83,10.15-.2,20.33,1,30.48,1.61.62,0,1.19.78,1.78,1.2-1.33,1.66-3.25,1.43-5,1.44a873.41,873.41,0,0,1-136.4-9.81A11.06,11.06,0,0,1,233.26,790.16Z" fill="inherit"/><path d="M388.47,780.38c-5.16,1-9.7-1.35-14.21-3-26.55-9.75-53.08-19.59-79.49-29.75a405,405,0,0,1-41.07-19c-1.7-.89-3.38-1.69-4.17-3.6,1.83-1.32,3.5-.51,5.18.41,34.35,18.59,71.72,29.77,107.83,44.06,8.68,3.44,17.79,5.94,25.68,11.2Z" fill="inherit"/><path d="M141.47,827c49.8-2.23,97.84-7.21,146.19-11.92-1.35,3.82-4.26,3.5-6.72,3.8-12,1.46-23.91,3-35.9,4.14-13.5,1.24-27,1.91-40.55,3-12.39,1-24.75,2.26-37.13,3.24C159.16,829.89,151,830.05,141.47,827Z" fill="inherit"/><path d="M197.32,774.28c-10.37,2.22-19.92-.34-29.57-1.8C144.62,769,121.8,763.91,99,758.76c-5.52-1.24-11.17-1.91-16.64-3.32C76.59,754,71,751.88,65.41,750.1c-.41-2.55,1.14-2.75,2.64-2.53a50.39,50.39,0,0,1,5.48,1.36c25.87,6.87,52.1,12.11,78.35,17.21,11.1,2.15,22.33,3.66,33.48,5.58C189.37,772.41,193.33,773.42,197.32,774.28Z" fill="inherit"/><path d="M519.16,549.92c-2.41-5.2-1.75-10.67-.54-16,7.42-32.74,15.91-65.21,26.06-97.22,2-6.42,4.68-12.65,7.48-20.13,1.77,4.52-.25,7.13-1,9.74-10.17,34-20.21,67.95-27.75,102.62C521.86,535.91,520.56,542.93,519.16,549.92Z" fill="inherit"/><path d="M498,741c-1.73-.62-2.32-.69-2.35-.87-.75-4.07-1.62-8.13-2.11-12.23-3.11-26.19-5.85-52.43-6.6-78.82-.26-9.36.13-18.73,2.6-27.92,1.41,10.1.46,20.26.88,30.38s1,20.33,1.72,30.47c.75,9.76,1.79,19.5,2.81,29.24S497.9,730.68,498,741Z" fill="inherit"/><path d="M243.29,520.39c-8.33-8-16.42-16.34-25.07-24-9-8-18.42-15.56-27.89-23-9.08-7.15-18.55-13.8-27.8-20.6,1.48-2.12,2.62-1.82,3.53-1.19,28.53,19.74,56.27,40.42,78.85,67.08Z" fill="inherit"/><path d="M330.29,658.88c14.47,9.08,46.18,37.8,72.81,65.4,1.22,1.26,3,2.33,2.47,4.51-.5.8-1.15.87-1.88.19q-33.46-31.31-66.9-62.65C335,664.62,333.48,662.56,330.29,658.88Z" fill="inherit"/><path d="M141.94,854.22c7.32-4.06,14.28-2.79,20.81-3.65,6.7-.89,13.46-1.36,20.19-2,7.11-.71,14.21-1.42,21.31-2.21,6.72-.74,13.44-1.57,20.16-2.39s13.17-2.85,20.94-1.85c-2.78,3.27-6.16,3.22-9.07,3.6q-19,2.52-38.08,4.6c-13.09,1.43-26.19,2.78-39.3,3.87C153.74,854.58,148.52,854.22,141.94,854.22Z" fill="inherit"/><path d="M318.43,732.69c-3.14,1-5.9-.28-8.66-1.47-10-4.3-20.07-8.44-30-13-15.37-7-30.63-14.28-45.89-21.54-4.35-2.08-9-3.76-12.23-7.73a3.59,3.59,0,0,1,4.28-.24c28.13,14.3,57,27.13,85.73,40,2.34,1.05,5,1.72,6.47,4.19Z" fill="inherit"/><path d="M228.33,833.39c8.53-.7,15.94-.91,23.27-2,17.49-2.53,34.64-6.61,51.82-10.6,4-.93,7.91-2.28,12.68-1-5.81,3.91-12.21,4.56-18.21,5.91-21.23,4.78-42.41,10-64.32,10.83C232.09,836.61,230.6,836.61,228.33,833.39Z" fill="inherit"/><path d="M251.35,770.67c4-1.84,7-.94,9.89-.46,62.17,10.24,65.94,11,79.63,16.65-11.4.42-20.93-3.14-30.73-4.62S290.78,779,281.19,777,261.32,775.27,251.35,770.67Z" fill="inherit"/><path d="M698.6,558.47l-69.88,63.84c-.81.75-1.63,1.48-3.76.75-.06,0-.19-.62.51-1.42C633.44,612.5,689.79,562,698.6,558.47Z" fill="inherit"/><path d="M507.53,777.6c-3.51-2.49-2.52-6-2.54-9.08-.23-25.17,5.1-60.39,11.69-75.34C513.12,721.18,507.31,749,507.53,777.6Z" fill="inherit"/><path d="M93.43,865.18c5.58-.64,11.14-1.67,16.74-1.84,22.6-.71,45.17-1.83,67.66-4.34.27,0,.59.42.89.65-.33.61-.58,1.7-1,1.77C149.82,866.21,121.68,866.47,93.43,865.18Z" fill="inherit"/><path d="M432.89,808.18c-21.46-3.1-76.67-16.8-83.54-19.68,3.66-2,6.75-.77,9.62-.11,16.52,3.77,33,7.57,49.48,11.6,6.57,1.6,13,3.73,19.48,5.76A34.45,34.45,0,0,1,432.89,808.18Z" fill="inherit"/><path d="M566.43,672c.89-3.82,3.19-6.29,5.27-8.62,15.06-16.93,30.28-33.71,45.46-50.53a2.7,2.7,0,0,1,2.87-1.08c1.14,1.13.18,2.08-.43,2.84C608.33,628.65,572.26,667.64,566.43,672Z" fill="inherit"/><path d="M98.12,845.26c.12-.92.11-1.59.24-1.62,4.13-.95,64.74-1.78,72.75-.78-22.72,3.78-43.74,3.47-64.75,3.4C103.58,846.25,100.63,846.7,98.12,845.26Z" fill="inherit"/><path d="M527.22,653.4c2.84-16.26,23.7-65,32.12-75.89.2.3.65.7.57.89q-15,36.35-30.2,72.65C529.46,651.67,528.67,652.06,527.22,653.4Z" fill="inherit"/><path d="M412.48,810.8c-9-.27-18.08-.6-27.13-.8a178.58,178.58,0,0,0-28.18,1.74c-8.57,1.16-17.07,3.32-25.87,4.38.1-3,1.32-3.17,2.37-3.41,24.43-5.52,49.05-8.08,74-4.59,2,.28,3.62.89,4.54,2.79Z" fill="inherit"/><path d="M458.12,460.58c.84,28.82.76,57.65,1.18,86.48,0,.5-.8,1-1.23,1.51-.93,0-1.33-.5-1.35-1.45Q455.9,506,455.09,465a22.43,22.43,0,0,1,.75-4.25Z" fill="inherit"/><path d="M271.63,535.87c2.32-.78,3.35,1.11,4.54,2.31,15.91,16,29.87,33.67,44,51.58-3.18,1.83-4-.53-4.95-1.64q-8.85-10.23-17.47-20.68c-7.67-9.27-15.33-18.55-23.9-27C272.66,539.23,270.73,538.2,271.63,535.87Z" fill="inherit"/><path d="M251.22,552.31c-9.11-3.86-41-27.91-53.2-39.44,2.52-1.42,4.16.69,5.8,1.61C210.41,518.19,247,547.09,251.22,552.31Z" fill="inherit"/><path d="M473.63,710.85c-9.89-19.15-12.91-40.15-18.44-60.42-.78-2.84-1.79-5.81.1-9.45,4,7.47,4.45,15.46,6.56,22.93,2.25,8,3.94,16.09,5.94,24.14C469.69,695.66,471.68,703.25,473.63,710.85Z" fill="inherit"/><path d="M614.47,506.42c2.11-10.95,23-42.39,35.29-55.65,2.26,1.68.51,3.18-.36,4.48-3.14,4.68-6.4,9.29-9.68,13.89-7.87,11-15.8,22-22.59,33.77A33,33,0,0,1,614.47,506.42Z" fill="inherit"/><path d="M310.11,394.12c1.92,1.37,2.66,3.42,3.27,5.53q7.5,25.92,15,51.85c.14.52-.53,1.26-.83,1.9-.62-.28-1.63-.39-1.82-.85C321.73,442.9,311,402.36,310.11,394.12Z" fill="inherit"/><path d="M591.22,657.84c-11,16.11-32.65,40.84-39.43,45.74-1.17-1.62,0-2.85.81-4C564.28,683.88,583.34,663,591.22,657.84Z" fill="inherit"/><path d="M433.41,715.2c-12-16.22-27.4-42.36-29.92-50.89,2.7.1,3.5,2.46,4.55,4.18,7.47,12.17,14.89,24.38,22.1,36.71,1.8,3.09,4.8,6.08,3,10.32Z" fill="inherit"/><path d="M556.22,374.83c-4.45,20.05-11.84,37.41-18,55.88-2.6-2.64-1.59-4.33-1.1-6C544.51,399.26,550.32,383.8,556.22,374.83Z" fill="inherit"/><path d="M347.08,582.44c.64.21,1.62.23,1.86.66,8.86,15.93,19.68,30.74,27.38,47.28-.63.43-.91.77-1.14.73a1.44,1.44,0,0,1-.93-.57c-8.23-13.37-16.47-26.73-24.61-40.15a55.9,55.9,0,0,1-3.21-7.08C346.36,583.15,346.85,582.74,347.08,582.44Z" fill="inherit"/><path d="M262.57,784.3c-11.2.23-41.59-4.3-51.76-7.59,4.84-2.08,9.24-.84,13.33-.18C236.56,778.55,249.36,778.92,262.57,784.3Z" fill="inherit"/><path d="M536.81,600.78c.73-12.35,9.94-34.64,18.21-45.67.26.63.92,1.42.73,1.86C549.72,571.05,543.61,585.1,536.81,600.78Z" fill="inherit"/><path d="M527.61,724.69c2.67-1.21,3.34-3.9,4.58-6.17,5.43-9.92,11.9-19.18,18.42-28.4,1.48-2.09,2.67-4.58,5.28-5.63,1.42.67,1,1.83.49,2.66Q544.55,705,532.59,722.84a4,4,0,0,1-4.85,1.78Z" fill="inherit"/><path d="M599.26,503.93c-2.83,9.55-16.59,34.85-23.72,44.34-.33-.55-1-1.26-.9-1.6A240,240,0,0,1,599.26,503.93Z" fill="inherit"/><path d="M234.9,768.71c-15.89.67-30.8-4-46-6.87,8.08-2.44,15.76.35,23.43,1.6S227.88,764.86,234.9,768.71Z" fill="inherit"/><path d="M218,790.17c-16.43-.74-32.65-2.84-48.26-9.07l48.46,6.61C218.16,788.53,218.09,789.35,218,790.17Z" fill="inherit"/><path d="M67.9,853.29c12,.35,23.94.67,35.91,1.07a10.53,10.53,0,0,1,2.81.9c.61,1.22.39,1.83-.54,1.89C93.37,857.94,80.72,858,67.9,853.29Z" fill="inherit"/><path d="M512.67,758.5c-.65-8.38,1.33-16.65,3.29-24.83,1.16-4.87,1.3-10.35,5.39-14.72C521.32,725.41,516.93,747.46,512.67,758.5Z" fill="inherit"/><path d="M510.4,482.15c0,3.72.27,5.21,0,6.57q-3.94,17.47-8.13,34.91c-.14.58-1.05,1-1.62,1.47-1.58-2.49-.73-5.07-.05-7.48C503.68,506.57,504.29,494.81,510.4,482.15Z" fill="inherit"/><path d="M305.85,658.77c-7.33-2.57-23.42-15.13-31.7-23.74.48-.37,1.22-1.15,1.39-1C286.54,641.1,296.34,649.69,305.85,658.77Z" fill="inherit"/><path d="M342.47,502.37a2.21,2.21,0,0,1,2.69,1.32q6.76,17.25,13.37,34.56c.2.52-.4,1.34-.64,2-5.35-7.39-12.84-26.22-15.15-38.09Z" fill="inherit"/><path d="M493.51,576.18A129.49,129.49,0,0,1,498.4,538c1.87,8.27-.08,14.25-1,20.26S497.74,570.83,493.51,576.18Z" fill="inherit"/><path d="M316.76,644.52c-7.64-3.2-19.36-13.74-29.3-25.21.72-1.3,1.77-.95,2.61-.32C300,626.43,308.27,635.51,316.76,644.52Z" fill="inherit"/><path d="M496.1,792.46c-6.46-9-9.49-17.51-10.75-29.27C490.66,773.79,494.12,782.88,496.1,792.46Z" fill="inherit"/><path d="M475.29,727.27A100.46,100.46,0,0,1,483,756.39,64.34,64.34,0,0,1,475.29,727.27Z" fill="inherit"/><path d="M267.32,545a71.4,71.4,0,0,1-14.66-14.53C259.24,532.34,259.78,532.86,267.32,545Z" fill="inherit"/><path d="M244.81,505.64c8.85,6.38,12.69,10.9,15.63,17.56C253.82,519,250.37,515.27,244.81,505.64Z" fill="inherit"/><path d="M457.78,411.5a107.49,107.49,0,0,1-.27,28.73C455.29,430.59,456.2,421,457.78,411.5Z" fill="inherit"/><path d="M380.31,594.15c-5.06-6.2-6.06-8.55-8.31-19.42C378.4,583.71,379.62,586.55,380.31,594.15Z" fill="inherit"/><path d="M266.37,723.65c6.46.69,12.12,3.16,18.15,7.75-8.27-.48-13.06-2.78-17.92-8Z" fill="inherit"/><path d="M330.42,464.89c3.16,5.52,5.41,10.24,5.81,16.32C331.57,476,331.5,475.77,330.42,464.89Z" fill="inherit"/><path d="M459.69,597.8V585.68C462.37,592.75,462.37,592.75,459.69,597.8Z" fill="inherit"/><path d="M288.4,788.47c-8.29.8-8.29.8-13.64-2.41C281.38,785.75,281.38,785.75,288.4,788.47Z" fill="inherit"/><path d="M302.39,601.9a24.42,24.42,0,0,1-10.33-9.76C297.79,593.36,297.79,593.36,302.39,601.9Z" fill="inherit"/><path d="M387.56,765.75c-4-2.7-9.33-2.79-13.67-7.36,6.07,0,10.21,1.8,13.51,5.52.35.39,0,1.39,0,2.11Z" fill="inherit"/><path d="M267.94,567.91c-4.41-1.17-7.43-4.09-10.07-7.82C263.11,560.94,263.11,560.94,267.94,567.91Z" fill="inherit"/><path d="M209.48,838.21c1.55-4,5-1.94,7.85-2.89-.15,2.89-2.13,3-3.56,3.41S210.85,839.64,209.48,838.21Z" fill="inherit"/><path d="M340.31,744.52c5.36.07,5.41,0,7.31,2.69-1.51,1.34-2.78-.15-4.08-.45S340.31,746.8,340.31,744.52Z" fill="inherit"/><path d="M457.67,814.09c-5.08.25-8.32,1.44-10.57-2.58C450.79,810.42,453.11,812.27,457.67,814.09Z" fill="inherit"/><path d="M644.81,587.2a16.41,16.41,0,0,1,7.78-7.92C651.25,584.28,651.25,584.28,644.81,587.2Z" fill="inherit"/><path d="M612.82,633.91c-.43,4.71-2.94,5.87-6.32,8.31C607.36,637.82,609.68,636.41,612.82,633.91Z" fill="inherit"/><path d="M446.55,615.92a7.07,7.07,0,0,1-2.48-5.37c0-.45.7-1.1,1.23-1.32.82-.35,1.34.14,1.56,1C447.27,612,448,613.67,446.55,615.92Z" fill="inherit"/><path d="M521.78,674.65a30.12,30.12,0,0,1-.69,4.25c-.12.42-1.11.59-1.7.88-.28-.63-.93-1.38-.77-1.88a29.54,29.54,0,0,1,1.8-3.88Z" fill="inherit"/><path d="M432,753.22c-3.86-.4-4.92-2.72-7-6.72C428.88,748.45,431.17,749.41,432,753.22Z" fill="inherit"/><path d="M247.67,612.49c-4.63-1.15-6.92-2.09-8-4.71C243.11,608.24,243.11,608.24,247.67,612.49Z" fill="inherit"/><path d="M491.82,591.11c2.78,2.19.76,4.1,0,8C491.05,594.14,491.05,594.14,491.82,591.11Z" fill="inherit"/><path d="M281.2,580.23c-3.08.09-4.25-2-5.33-4.13C279.34,575.5,279.34,575.5,281.2,580.23Z" fill="inherit"/><path d="M192.8,840.09c-1.67,2.14-3.79,2.23-6.1,1.86C187.87,837.48,190.92,841.37,192.8,840.09Z" fill="inherit"/><path d="M367.16,561.23c-2.9-1.78-3.53-3.49-2.81-6.19C366.09,557,367.21,558.56,367.16,561.23Z" fill="inherit"/><path d="M700.8,553.88c2.48-2.37,3-4.45,5.26-3.92C705.78,551.83,704.63,552.84,700.8,553.88Z" fill="inherit"/><path d="M529.05,622.05c1.48,2.3.2,3.81-1.46,5.21C526.85,625.19,526.14,623.12,529.05,622.05Z" fill="inherit"/><path d="M127.43,778.16c3-2.84,5.06-1.28,8-1.82C132.5,779.18,130.46,777.56,127.43,778.16Z" fill="inherit"/><path d="M363.82,753.54c-2.69,1.35-3.86-.59-6.26-1C360.75,750.59,362.21,751.7,363.82,753.54Z" fill="inherit"/><path d="M492,605.65l-.72,1.69c-.44-.4-1.17-.75-1.24-1.21a2,2,0,0,1,1.44-2.33C491.67,604.42,491.84,605,492,605.65Z" fill="inherit"/><path d="M531.57,613.36c0-.87-.06-1.84,0-2.8s.72-1.4,1.44-1a2.12,2.12,0,0,1,.65,1.77C533.56,612.3,533.37,613.46,531.57,613.36Z" fill="inherit"/><path d="M603.8,522.26a23.35,23.35,0,0,1-.74,4c-.33.9-1.31,1.85-2.36,1s-.43-1.85.2-2.74c.78-1.1,1.3-2.59,3.13-2.14Z" fill="inherit"/><path d="M123.35,854.79a2.35,2.35,0,0,1-2.78,1.19c-.61-.16-1.61-1-1.54-1.24.44-1.26,1.7-1.26,2.75-1.12C122.35,853.7,122.84,854.38,123.35,854.79Z" fill="inherit"/><path d="M503.69,802.91c.17,1.38.57,2.79-.44,4.06-2.53-.43-3.47-2-2.85-4.54l3.67.87Z" fill="inherit"/><path d="M153.05,779.92c-1.77,1.75-3.37,1-4.94-.31C149.85,778.42,151.5,778.14,153.05,779.92Z" fill="inherit"/><path d="M397.63,654.05c.94.27,1.26.77.76,1.36-.14.16-.67.07-1,0-.93-.26-1.23-.79-.75-1.38C396.77,653.86,397.29,654,397.63,654.05Z" fill="inherit"/><path d="M153.41,757c1.27-1.37,2.57-1.18,4-.5C156,758.56,154.7,756.83,153.41,757Z" fill="inherit"/><path d="M170.22,758.24c1,.18,1.25.6.74,1.11a1.11,1.11,0,0,1-.91.28,11.81,11.81,0,0,1-1.62-.75Z" fill="inherit"/><path d="M524.21,664.4c-.79.27-1.24,0-1.22-.9,0-.29.23-.8.4-.82a8.19,8.19,0,0,1,1.63.12Z" fill="inherit"/><path d="M232.86,494.8l1.27-1c.62.78,1.24,1.55,1.82,2.36,0,0-.55.66-.8.63A2.52,2.52,0,0,1,232.86,494.8Z" fill="inherit"/><path d="M342.74,502.17c-.48-.93-1-1.84-1.4-2.81a1,1,0,0,1,.24-.95c.75-.48,1.38-.13,1.38.88a18.26,18.26,0,0,1-.47,3.07Z" fill="inherit"/><path d="M311.78,664.32c-.35.07-.74.29-1,.2-1-.31-1.07-.9-.27-1.41.19-.12.73.13,1,.35S311.68,664,311.78,664.32Z" fill="inherit"/><path d="M300.46,790.56c-.15.21-.32.62-.43.6a17.1,17.1,0,0,1-1.71-.43c.13-.25.31-.72.39-.7A16,16,0,0,1,300.46,790.56Z" fill="inherit"/><path d="M218.37,592.49a2.33,2.33,0,0,1,2.53,1.34,1.55,1.55,0,0,1-.82.45c-1.27-.1-1.76-.82-1.42-2.07Z" fill="inherit"/><path d="M529.52,457.07a3.07,3.07,0,0,1,.4-3.88c1.26,1.6.51,2.66-.68,3.64Z" fill="inherit"/><path d="M412.25,810.91c.65-.11,1.5-.52,1.9-.26.73.5.41.71-.62.17a2.21,2.21,0,0,0-1-.06Z" fill="inherit"/><path d="M393.1,783l1.37.72a4.54,4.54,0,0,1-.5-.36c-.21-.21-.39-.45-.58-.68Z" fill="inherit"/><path d="M393.39,782.71c-1.92-.19-4.17.34-4.91-2.33l-.26.29c1.93.15,4-.07,4.87,2.36Z" fill="inherit"/><path d="M387.38,766a8.9,8.9,0,0,1,1.85-1.11c.9-.26,1.45.21,1.38,1.06,0,.13-.57.36-.83.3-.73-.14-1.43-.4-2.18-.57Z" fill="inherit"/><path d="M302.62,739.54a14.33,14.33,0,0,1-2,.12c-.29,0-.81-.36-.8-.53.06-.86.68-1.26,1.43-.8.48.29.73,1,1.09,1.49Z" fill="inherit"/><path d="M318.16,733a2.79,2.79,0,0,1,1,.06,19.47,19.47,0,0,1,1.65,1.08c-1.66,1-2.63.78-2.44-1.42Z" fill="inherit"/><path d="M527.74,724.62l.4,2.47c-.17-.8-.35-1.6-.52-2.41Z" fill="inherit"/><path d="M266.6,723.37a7.51,7.51,0,0,1-1.85.47c-.93,0-1.23-.55-.75-1.27a.91.91,0,0,1,.89-.13,14.18,14.18,0,0,1,1.46,1.23Z" fill="inherit"/><path d="M433.12,715.52c1.05-.6,2-.84,2.2.79,0,.13-.56.47-.57.46-.46-.52-.88-1.07-1.33-1.59Z" fill="inherit"/><path d="M534.87 438.52L534.39 439.39 534.14 438.43 534.87 438.52z" fill="inherit"/><path d="M392.74,645.21c.24.84-.07,1.39-.94,1.45-.21,0-.69-.55-.64-.68a10.1,10.1,0,0,1,.92-1.54Z" fill="inherit"/><path d="M604,522.45c-.78-1.12.21-2.86.42-2.72,2,1.24,1.22,2.1-.66,2.53Z" fill="inherit"/><path d="M450.79,627.24a11,11,0,0,1,.63,2c0,.19-.51.47-.79.71a12,12,0,0,1-.66-2C449.94,627.75,450.5,627.47,450.79,627.24Z" fill="inherit"/><path d="M390.85,615.08c-1.33.18-2.15-1.35-1.69-1.58,2.32-1.13,1.25.93,1.42,1.83Z" fill="inherit"/><path d="M780.4,456.61c-.27-2.44,1.24-5.46-2.23-6.84,1.2-4-.94-7.4-2.18-10.87-7.11-20-17.3-38.44-28.28-56.52-17.17-28.28-39.16-52.53-62.84-75.37a631.32,631.32,0,0,0-56.6-48.63c-3-2.28-5.86-4.74-8.74-7.18-1.13-1-2.15-2.1-1.57-3.83l-.26.3c6,2.4,11,6.44,16.11,10.34,33,25.4,63.75,53.33,90.36,85.34,26.24,31.55,46.46,66.83,59.15,106.12.81,2.51,1.87,4.95,1.21,7.66C783,458.25,781.76,456.86,780.4,456.61Z" fill="inherit"/><path d="M832.4,333.73c.4-3,.44-6.07,1.27-8.93,9.08-31.21,14.63-63.22,21.71-94.89a774.83,774.83,0,0,0,15-91.56c1.62-16.15,2.25-32.39,3.34-48.59.15-2.23.33-4.46.49-6.64,2.31-.18,3.09,1,3,2.67-.34,6.78-1,13.55-1.2,20.33-1.43,41.67-8.28,82.6-17,123.25-6.24,29.14-11.63,58.48-19.55,87.25-1.4,5.09-3.22,10.05-4.9,15.05a2.57,2.57,0,0,1-2.49,1.84Z" fill="inherit"/><path d="M966.16,96.53c.69,9-1.67,16.22-3.63,23.44-5.25,19.3-12.16,38.06-19.44,56.63q-19.59,50-42.63,98.52c-2.9,6.12-5.87,12.22-8.82,18.32-.63,1.29-1.24,2.67-3.95,2,1.22-3.1,2.23-6.2,3.61-9.12,17.25-36.44,33.8-73.21,48.24-110.86,8.9-23.17,18.21-46.29,22.89-70.87A14.72,14.72,0,0,1,966.16,96.53Z" fill="inherit"/><path d="M796,327.25c-3.76-5.31-3.41-9.16-3.65-12.81-.84-12.79-1.49-25.61-2.31-38.41-2.5-39.19-6.72-78.15-16.88-116.23q-4.67-17.48-9.45-34.93c-.59-2.15-1.52-4.23-.42-6.61,4.19,2.19,4,6.51,5.05,9.88C788,192.17,794.41,258.06,796,327.25Z" fill="inherit"/><path d="M809,453.42c4.65-3.68,6.2-9.3,8.57-14.3,8.67-18.37,17-36.87,25.54-55.31,2.15-4.67,4.2-9.4,9.21-14.84-2.18,8.95-5.41,15.21-8.34,21.55-10.9,23.55-22,47-32.79,70.62-1.66,3.6-4.67,7-3.08,11.56-1.28-.66-1.93-.12-2.11,1.14,0,.28.33.87.43.85,1.25-.22,1.41-1.2,1.43-2.25,2.64-1.1,3.52-3.75,5.11-5.78,10.66-13.59,21.27-27.23,32-40.75a35.74,35.74,0,0,1,8.13-7.33c-2.17,6-6.57,10.42-10.4,15.21-4.23,5.27-8.55,10.48-12.71,15.8-3.93,5-7.8,10.12-11.53,15.29s-7.24,10.47-10.73,15.54a12.46,12.46,0,0,1-8.17-.57c.51-2.53,1-5.08,1.54-7.62l-.29.36c1.67-1.23,2.18-3.06,2.56-5l-.27.45a8.62,8.62,0,0,0,2.5-7.34l-.2.35c3.18-1.7,4.85-4.09,3.61-7.83Z" fill="inherit"/><path d="M652.11,217.5c3,.13,4.16,2.69,5.69,4.56,35.1,42.7,65.58,88.46,90.39,137.89,4.13,8.22,9.27,16.15,11.8,27.56a95.78,95.78,0,0,1-11.51-19.14c-23.56-48.37-52.77-93.13-86-135.33-3.27-4.14-6.59-8.25-9.87-12.39A2.59,2.59,0,0,1,652.11,217.5Z" fill="inherit"/><path d="M905.49,334.25c-.52-2.07.55-3.64,1.65-5.17,3.75-5.2,7.36-10.51,11.32-15.53q25.93-32.9,54.43-63.6c23.12-24.82,46.33-49.61,70.87-73.08,1.06-1,2.23-1.92,3.29-2.82,2.29,1.41,1,2.71.18,3.65-2.28,2.51-4.76,4.83-7.12,7.27-21.54,22.19-43.54,43.94-64.46,66.7-21.94,23.87-43,48.59-62.84,74.25-2.26,2.92-3.86,6.51-7.57,8.09Z" fill="inherit"/><path d="M1012.54,302.84c.15,1.12.3,2.24.54,4.14-29.79,15.81-58.54,33.79-85.32,54.8a621.53,621.53,0,0,0-74.46,69.1c-2.36-1.48-1.52-2.67-.56-3.81,9.48-11.31,20-21.64,30.72-31.71,31.77-29.8,66.1-56.26,103.91-78,6.86-3.95,14-7.44,21-11.2,1.59-.85,3.65-1.17,4.27-3.31Z" fill="inherit"/><path d="M1144.15,266.9c-.3,1-.28,2.64-1,3a26.9,26.9,0,0,1-6.29,2.47c-43.41,11.71-85.17,27.8-125.75,47.08-12.26,5.82-24.1,12.43-35.78,19.35-1.8,1.06-3.45,3.12-6,1.5,1-3.33,4.26-4.11,6.71-5.61,22.22-13.65,45.88-24.42,69.9-34.44a809,809,0,0,1,76.56-27.4c7.19-2.17,14.52-3.86,21.79-5.78Z" fill="inherit"/><path d="M767.35,356.34c-3.28-.73-3.29-3.88-4.21-6.11-12.09-29.28-25.09-58.14-39.33-86.42-5.09-10.1-10.51-20-15.71-30.07-1-1.91-2.82-3.66-1.77-6.3,1.94-.93,2.46.93,3,1.92,10.79,19.45,21.18,39.12,30.5,59.32,6.64,14.37,13.3,28.74,19.56,43.27,3.4,7.9,7.76,15.6,7.67,24.62Z" fill="inherit"/><path d="M890.62,428.66c8.92-9.36,33.18-21,70.43-34.35,15.46-5.52,31.19-10.37,47.7-12-20,7.68-41,12.21-60.7,20.59C928.79,411.09,909.27,418.74,890.62,428.66Z" fill="inherit"/><path d="M1162.43,398.3c-38.67-3.74-77.25-6.19-116-1.21-.47-3.08,1.67-3.37,3.19-3.51,10.12-.95,20.14-2.57,30.38-2.67,22.64-.24,45.21.21,67.54,4.4C1152.5,396.25,1157.46,397.3,1162.43,398.3Z" fill="inherit"/><path d="M915.28,205c1.86,3.08,0,5.84-.94,8.55-5,15.39-10.33,30.67-17.21,45.38-7,15-13.76,30.14-20.62,45.21-1.56,3.42-3,6.92-5.92,9.7-2-1.6-.47-3.13.12-4.48,5.9-13.44,11.5-27,17.91-40.24a442.66,442.66,0,0,0,23.57-59.83C912.75,207.5,913,205.55,915.28,205Z" fill="inherit"/><path d="M1174.28,317.22c-36.21,7.25-72,15.36-108.06,23.38-.57-3.12,1.47-3.48,3-3.89,8.38-2.2,16.74-4.5,25.2-6.36,16.93-3.72,33.9-7.24,50.88-10.71,6.64-1.35,13.33-2.52,20.05-3.45C1168.29,315.78,1171.35,315.14,1174.28,317.22Z" fill="inherit"/><path d="M633.58,149.9c2.82-1.8,4-.64,4.9.47,19.34,23.11,39.15,45.88,54.89,71.74,2.51,4.12,5.44,8.12,6,14.14-2.89-1.44-3.83-3.79-5.11-5.7-1.67-2.5-3.14-5.14-4.73-7.7-1.39-2.24-2.78-4.48-4.23-6.68-1.66-2.52-3.38-5-5.1-7.47-1.51-2.17-3-4.33-4.58-6.46s-3.15-4.23-4.76-6.32q-2.75-3.58-5.55-7.14c-1.63-2.07-3.29-4.13-5-6.18s-3.36-4.07-5-6.12c-1.89-2.34-3.74-4.72-5.64-7.07-1.66-2-3.36-4.06-5-6.1l-5.78-7Z" fill="inherit"/><path d="M771.76,406.23c-3.41-1.94-3.35-5.75-4.22-8.78-8-27.9-18.47-54.85-30.25-81.33-.87-2-2.62-3.86-.78-6.19,2.87,1.06,3.4,3.91,4.52,6.18,7.33,14.86,13.1,30.38,18.71,45.94,3.7,10.24,7.81,20.37,10.16,31.07,1,4.43,2,8.79,1.58,13.36Z" fill="inherit"/><path d="M725.8,381.75c-5.22-1.62-8.19-5.05-11.74-7.41-3.76-2.5-7.31-5.31-11-7.87s-7.49-5.06-11.32-7.44c-4.15-2.57-8.36-5.07-12.63-7.45-3.93-2.2-8-4.27-12-6.27s-8.18-3.79-12.24-5.75-8.61-2.38-11.72-6.21c3.57-2.1,6.21.32,8.76,1.34a280.68,280.68,0,0,1,68,39.69C722.05,376.08,724.82,377.42,725.8,381.75Z" fill="inherit"/><path d="M1054.51,374c2.53-3.05,5.27-3,7.82-3.41,26.41-4.1,53.06-4.85,79.71-5.77,2.08-.07,4.48-.15,6.73,2.45-4.59,1.28-8.9.59-13.1.83-4.5.26-9,.31-13.51.55s-9,.64-13.48.92-9,.43-13.5.77-9,.87-13.44,1.27-9,.78-13.47,1.11S1059.66,375.61,1054.51,374Z" fill="inherit"/><path d="M1072.06,381.25a22,22,0,0,1-4.17,1.45c-28,3.68-55.58,9.55-83.12,15.64-.25.05-.6-.42-1.39-1,2.39-2.92,6-2.83,9-3.63C1018.56,386.57,1045.21,382.06,1072.06,381.25Z" fill="inherit"/><path d="M802.16,396.5c0-11.08-.57-21.29.16-31.41s-.16-20.38-.06-30.56c.1-10-.68-20-1.1-30.67,1.42,1.05,2.39,1.39,2.49,1.9,3.18,17.59,1.6,35.37,1.79,53.06C805.57,371.13,806.22,383.62,802.16,396.5Z" fill="inherit"/><path d="M1024.88,185.57c9.56-14.88,45.44-48.76,55.25-54.21.75.45,1,1.26.37,1.89Q1052.72,159.44,1024.88,185.57Z" fill="inherit"/><path d="M784.17,295.26c3.69,20.45,6.14,63.38,4.45,75.95-2-1.17-1.69-3.31-1.8-5q-2.3-34.81-4.36-69.64C782.45,296.36,783,296.15,784.17,295.26Z" fill="inherit"/><path d="M777,235.45a4,4,0,0,1-2.91-3.09c-.73-4.07-1.58-8.13-2.23-12.22-2.44-15.63-4.77-31.27-8.33-46.7-1.07-4.67-1.31-9.54-2.14-15.89,5.26,8.31,10.62,36.54,15.51,78.1Z" fill="inherit"/><path d="M668.19,247.24a3.34,3.34,0,0,1-4-1c-2.31-2.47-4.67-4.9-6.87-7.46-12.25-14.24-24.29-28.68-38.47-41.12a7.9,7.9,0,0,1-1.35-2.54c.55-1.1,1.31-1.45,2-.86,18.55,15.49,34,33.8,48.37,53.15Z" fill="inherit"/><path d="M1037.55,453.43c31,2.23,64.79,9.71,76.26,16.9-.76,2-2.22,1.27-3.52.83-18.6-6.27-37.79-9.93-57.16-12.79-4.09-.61-8.13-1.55-12.2-2.28a4,4,0,0,1-3.18-2.81Z" fill="inherit"/><path d="M590.63,210.45c2-1.95,3.48-1.37,4.75-.66,18.2,10.14,34.43,22.88,49.3,37.42a16.66,16.66,0,0,1,2.11,2.63,19.75,19.75,0,0,1,1.18,3.07c-6.12-3.37-10-7.94-14.49-11.57-4.7-3.76-9.26-7.71-14-11.38-4.48-3.43-9.12-6.65-13.76-9.87C600.84,216.73,595.5,214.07,590.63,210.45Z" fill="inherit"/><path d="M731.28,345.82a11.16,11.16,0,0,1-2.41-2.09q-19.17-30.64-38.2-61.37c-.11-.18.23-.63.39-1,.58.07,1.45-.09,1.74.25C701.19,291.5,726,331.48,731.28,345.82Z" fill="inherit"/><path d="M855.86,185.66c1.62,13.28-6.86,54.75-13.49,71.66,0-2.7-.24-4.16,0-5.52Q849.07,218.71,855.86,185.66Z" fill="inherit"/><path d="M601.85,239.5c-6.73-2.07-12.2-6.48-18.18-10s-12.29-7.15-18.6-10.41c-6.13-3.17-12.83-5.19-20.41-9.89,8.55.25,14.15,3.34,19.87,5.88C578,221.09,593.68,231,601.85,239.5Z" fill="inherit"/><path d="M799.94,451.71c4.88-23.07,12.88-45.26,18.77-68a2.48,2.48,0,0,1,2.41-2.07c1,5.81-1.21,11.18-3,16.34C812.14,415.87,808.84,434.74,799.94,451.71Z" fill="inherit"/><path d="M863.74,324.62c-1.29,11.82-11.45,32.8-21.59,48.54a6.49,6.49,0,0,1,.59-5.41C849.69,353.35,856.73,339,863.74,324.62Z" fill="inherit"/><path d="M953.14,442.08c-.48,1.85-2,2.19-3.48,2.35q-22.89,2.52-45.8,4.9a11.13,11.13,0,0,1-2.93-.52c1.25-2.07,3.16-2.54,4.91-2.95,13.94-3.24,28.33-2.64,42.4-4.82C949.85,440.8,951.81,440.38,953.14,442.08Z" fill="inherit"/><path d="M917.75,295.47c6.32-14.76,24.4-40.71,31.2-45.73C946.46,256.08,926.8,285.44,917.75,295.47Z" fill="inherit"/><path d="M979.9,220.13c.16.32.55.79.45.93q-15.11,21-30.32,42c-.53.73-1.64,1-2.46,1.53-1.39-1.92.07-3.05.76-4.2,8.19-13.59,18-26,28.07-38.19C977.26,221.11,978.1,219.69,979.9,220.13Z" fill="inherit"/><path d="M1117.83,284.68c-.92,1.16-1.22,1.92-1.72,2.1q-24,8.36-48,16.62a1.44,1.44,0,0,1-2-.65c.06-2.48,2.27-2.68,3.85-3.25C1085.44,293.91,1100.64,287.24,1117.83,284.68Z" fill="inherit"/><path d="M835.75,384.66C830,400.51,824,416.15,816,431c.59-8.57,4.59-16.09,7.76-23.74C827,399.38,830.23,391.41,835.75,384.66Z" fill="inherit"/><path d="M1012.85,451c-17.11,1.28-34.23-1.82-51.49-1.84C972.46,446.17,999.54,446.93,1012.85,451Z" fill="inherit"/><path d="M1030.48,317.17c-7.87,5.92-29.83,16.84-37.55,18.65-.86-1.92.84-2.53,1.87-3.15C1008.2,324.59,1021.29,318.94,1030.48,317.17Z" fill="inherit"/><path d="M864.45,100.87c0-12.35,0-24.69,0-37a34.88,34.88,0,0,1,.51-4.09c1.73.15,2.5,1.14,2.57,2.2C868.37,75,868.83,88,864.45,100.87Z" fill="inherit"/><path d="M941.47,337.62c-9.41,9.18-21,15.68-30.09,25.08-2.45-1.68-1.27-2.92-.35-3.86C919.79,349.91,930.08,343.1,941.47,337.62Z" fill="inherit"/><path d="M620.42,260.23c-.69.1-1.59.53-2,.25Q602.5,250,586.71,239.34c-.11-.07.09-.62.16-1,2-1.28,3.53.42,5,1.19,9.37,4.87,17.83,11.16,26.36,17.32C619.33,257.62,620.48,258.58,620.42,260.23Z" fill="inherit"/><path d="M857.9,172.37c1.57-13.66,3.15-27.32,4.71-40.83,2.18-.9,2,.77,2.07,1.48.49,12.08-1.73,23.9-3.7,35.73-.23,1.37-1.28,2.6-2,3.89Z" fill="inherit"/><path d="M727.77,369.15c12,9.31,19.12,18.45,24.48,30.32-4-2.13-3.92-2.15-8.41-8.65-2.33-3.38-5.13-6.42-7.62-9.69S730,375.51,727.77,369.15Z" fill="inherit"/><path d="M1015.16,354.2c7.18-5.55,19.06-9.09,34.2-10.19C1042.32,348.26,1024.39,353.6,1015.16,354.2Z" fill="inherit"/><path d="M1075.37,150.62c-.25-1.71.77-2.82,1.89-3.82a160.57,160.57,0,0,1,28.51-20.26c.48-.28,1.36.14,2.11.25-.06.62.12,1.59-.22,1.82-10,6.77-20,13.42-29.35,21.08-.75.61-2.1.48-3.16.69Z" fill="inherit"/><path d="M832.3,160.86c-.19,10.94-1.38,21.17-5.24,31-1.09-10,1.23-19.66,2.75-29.39C829.89,162,831,161.7,832.3,160.86Z" fill="inherit"/><path d="M1012.56,181.83c0,.67.29,1.59,0,2q-9.9,11.63-20,23.1c-.32.36-1.23.22-1.9.32C995.74,197.19,1005.58,185.79,1012.56,181.83Z" fill="inherit"/><path d="M1190.29,383.54c-12.35.87-23.65-1.88-36.39-2C1161.68,377.89,1179,379.07,1190.29,383.54Z" fill="inherit"/><path d="M781.91,284.83c-3.93-11.56-3.64-21.72-4.93-33.59C781.39,258.76,782.84,269.6,781.91,284.83Z" fill="inherit"/><path d="M825,208.11c.89,11-1.15,21.49-4.19,31.82A94.85,94.85,0,0,1,825,208.11Z" fill="inherit"/><path d="M869.26,458.1c6.73-5.58,14.71-7.25,23.16-7.47C885.42,455.35,877.42,457,869.26,458.1Z" fill="inherit"/><path d="M981.6,367.2a144.07,144.07,0,0,1-24,10.74C962.79,371.36,965.67,370.08,981.6,367.2Z" fill="inherit"/><path d="M882.94,307.55c-1.82,8.54-6.59,15.75-11.7,25.56C872,323.59,873.72,319.88,882.94,307.55Z" fill="inherit"/><path d="M881.78,390c3.1-8.38,7.06-12.21,16.63-18.25.21.28.56.54.58.83a1.46,1.46,0,0,1-.36,1Q890.23,381.82,881.78,390Z" fill="inherit"/><path d="M823.81,480.81c7-6.32,13.25-10.8,22.73-12.85C838.5,474.94,834.17,477.39,823.81,480.81Z" fill="inherit"/><path d="M989,226c-5.27,7.43-10.23,13.39-16.06,18.45-1.23-.76-1.45-1.47-.85-2.21,3.53-4.4,7.06-8.8,10.66-13.15C983.88,227.69,985,226.08,989,226Z" fill="inherit"/><path d="M664.9,266.58c6.83,4,10.89,10.56,15.55,17.68-1.66-.24-2.54-.09-2.87-.45-4.76-5.12-9.45-10.32-14.15-15.5Z" fill="inherit"/><path d="M1146.48,381.11h-18.64c-.43-2.22.54-3,2.2-3.08C1134.76,377.89,1139.53,377.5,1146.48,381.11Z" fill="inherit"/><path d="M1101.88,379.26c-4.14,2.9-8.55,1.53-15,1.91C1092.91,377.45,1092.91,377.45,1101.88,379.26Z" fill="inherit"/><path d="M643.19,281.06c7.64.42,11.1,6.27,15.81,10.75-.67.6-.9,1-1.2,1a1.41,1.41,0,0,1-1.07-.18Q649.94,286.89,643.19,281.06Z" fill="inherit"/><path d="M832.68,144.67a60.9,60.9,0,0,1,1.76-18.35C837,132.57,837,132.57,832.68,144.67Z" fill="inherit"/><path d="M715.09,265.77c-.62-.24-1.53-.3-1.77-.73-2.45-4.49-4.79-9.05-7.09-13.44,1.74-2.19,2.87-.83,3.49.27,1.79,3.2,3.45,6.49,4.91,9.85C715.14,262.9,716.17,264.29,715.09,265.77Z" fill="inherit"/><path d="M801.13,472.23l-4.71,1.95c1-6,2.64-11.09,6.84-14.88,1-.93,1.55,1,2.17,1.79l.2-.35c-2.74,1.8-2.27,4.68-2.5,7.34l.27-.45c-2.45.83-2.12,3.09-2.56,5Z" fill="inherit"/><path d="M835.92,115.67c-.92-8.19,1-13.75,1.54-19.48C840.1,104.16,840,105,835.92,115.67Z" fill="inherit"/><path d="M731.88,301c-5.52-6.19-6.1-7.57-5.7-13.53C730.67,294,730.67,294,731.88,301Z" fill="inherit"/><path d="M916.8,378.19c2.43-5.21,6.85-7.79,12.92-10.57C925,374.45,925,374.45,916.8,378.19Z" fill="inherit"/><path d="M690.52,199.85c-.36.06-.88.3-1.07.15-4.36-3.43-6.59-8.23-9.71-14,6.94,4.12,7.14,4.4,10.49,14Z" fill="inherit"/><path d="M838.52,58.54c3.19,8.41,3.19,8.42-.36,14.69C837.42,68.72,837.54,64.89,838.52,58.54Z" fill="inherit"/><path d="M1024,379c5.82-3.47,5.82-3.47,14.09-3.19C1031.68,379,1031.68,379,1024,379Z" fill="inherit"/><path d="M967.52,441.84c6.9-1.27,13.82-1.85,20.66.24C981.28,444.8,974.41,442.72,967.52,441.84Z" fill="inherit"/><path d="M683.73,271.26c-7.26-6.37-7.26-6.37-8.78-12.6C681,264.1,681,264.1,683.73,271.26Z" fill="inherit"/><path d="M795,341.06c3.14,5.24,3.23,5.25,1,12.14-2.44-1.51-1.23-3.94-1.5-5.8C794.22,345.33,793.49,343.06,795,341.06Z" fill="inherit"/><path d="M1045.15,289.58c3.3-3.18,7-5.34,12.62-4.84A19,19,0,0,1,1045.15,289.58Z" fill="inherit"/><path d="M579.15,233.45c-6.09-1.26-6.09-1.26-10.93-5.52C573.22,227.8,575.94,230.23,579.15,233.45Z" fill="inherit"/><path d="M933.32,284c-.38,4.1-3.16,6.51-6,9.84C928.54,288.08,928.54,288.08,933.32,284Z" fill="inherit"/><path d="M705.29,314.6c-3.86-2.58-6-4.86-6.28-8.59.84,0,1.68-.17,2,.15C703.09,308.24,704.14,310.83,705.29,314.6Z" fill="inherit"/><path d="M1075.15,150.38c-.78,4.76-5.47,5.45-8.79,9,2.86-6.1,2.83-6.13,9-8.76Z" fill="inherit"/><path d="M1030.63,444.61c-4,2.25-7.45.54-11.6-.11C1024.82,443.1,1024.82,443.1,1030.63,444.61Z" fill="inherit"/><path d="M995.14,362.51c2-3.87,4.43-3.91,7-4C1001.35,361.8,998.47,361.37,995.14,362.51Z" fill="inherit"/><path d="M1043.39,311.44c3.25-2.78,5.68-4,8.66-3.94-1-1.09,1.73-.28.62.72C1050.47,310.17,1048.28,312,1043.39,311.44Z" fill="inherit"/><path d="M1030.9,296.39c-1,2-2.44,3.23-4.89,2.87-.86-1.92.72-2.48,1.89-3.09A2.38,2.38,0,0,1,1030.9,296.39Z" fill="inherit"/><path d="M825.62,363.2c.22-3.22-.35-6.68,2.6-9.66.42,5.27.42,5.27-2.87,9.44Z" fill="inherit"/><path d="M708.89,351.41c-5.64.41-7-2-9.11-5.32C704.24,345.81,705.63,348.45,708.89,351.41Z" fill="inherit"/><path d="M905.24,334c-.34,3.09-2.4,4.83-5.86,8.32,1.86-4.79,2.69-7.54,6.1-8.08Z" fill="inherit"/><path d="M997,214.48c1.42,2.19.21,3.13-.85,4.08-.76.68-1.49,1.52-2.88.86C993,216.53,995,215.66,997,214.48Z" fill="inherit"/><path d="M561.23,224.17c-1.9,1.31-3.39.19-4.84-.82a5.88,5.88,0,0,1-1.12-1.52c.65-.22,1.36-.72,1.94-.59A5.87,5.87,0,0,1,561.23,224.17Z" fill="inherit"/><path d="M940.14,276c-.59.82-1.18,1.74-1.87,2.57a1.05,1.05,0,0,1-1-.11,2.29,2.29,0,0,1,.32-3c.37-.41,1.25-.42,1.91-.47C939.67,275,939.87,275.58,940.14,276Z" fill="inherit"/><path d="M854.64,464.13c.82-2.26,2.5-3.07,5-2.62.84,2.08-1.31,1.95-2.15,2.62S855.62,465.3,854.64,464.13Z" fill="inherit"/><path d="M809,453.26c-.2-.63-.22-1.41-.62-1.85-1.51-1.68-1.47-3,.59-4.18,2.27,2.08-.24,4.1,0,6.15Z" fill="inherit"/><path d="M865.22,113.58c1.19.72,1,1.88.88,3a3.68,3.68,0,0,1-.45,1c-.45-.36-1.14-.64-1.29-1.09C864,115.37,864,114.24,865.22,113.58Z" fill="inherit"/><path d="M618,247.37c-1.83.93-3.14.67-3.72-1.57,1.58,0,2.82.42,3.45,1.88Z" fill="inherit"/><path d="M858.22,354.66c1-.22,1.49.17,1.4,1.1a4,4,0,0,1-.65,2,.87.87,0,0,1-1.61-.36A7.89,7.89,0,0,1,858.22,354.66Z" fill="inherit"/><path d="M832.14,333.51a27.88,27.88,0,0,1,.36,3c0,1-.53,1.32-1.26.83a1,1,0,0,1-.18-.94c.4-.91.9-1.77,1.36-2.65Z" fill="inherit"/><path d="M1144.3,267.09h5.32c-2.52,1.76-4,1-5.43-.13Z" fill="inherit"/><path d="M627.48,267.56c-.08-.82.38-1.2,1.35-1.06a1.74,1.74,0,0,1,1,.41c.61.7.42,1.49-.51,1.58C628.74,268.54,628.09,267.89,627.48,267.56Z" fill="inherit"/><path d="M715.07,357.58c.47.46,1.22.85,1.33,1.37.2,1-.41,1.41-1.09.8a7.41,7.41,0,0,1-1.12-1.69Z" fill="inherit"/><path d="M722.21,364.54c-.31.16-.79.52-.88.43a7.92,7.92,0,0,1-1.16-1.41l.62-.51C721.29,363.52,721.74,364,722.21,364.54Z" fill="inherit"/><path d="M1013,199.23a2.59,2.59,0,0,1-1.71,2.45.88.88,0,0,1-1.32-1,2.55,2.55,0,0,1,1.09-1.8C1011.54,198.66,1012.36,199.09,1013,199.23Z" fill="inherit"/><path d="M863.63,408.14l-.92,0a4.48,4.48,0,0,1,.17-1.79c.45-.76,1.24-.7,1.39.07C864.37,406.91,863.87,407.55,863.63,408.14Z" fill="inherit"/><path d="M838.54 84.96L838.68 85.75 838.07 85.54 838.54 84.96z" fill="inherit"/><path d="M690.23,200.07a11.54,11.54,0,0,1,1.24,1.38.89.89,0,0,1-.17.86c-.68.45-1.29.18-1.34-.69a5.38,5.38,0,0,1,.54-1.76Z" fill="inherit"/><path d="M698,211.58c.18.3.48.59.49.89s-.34.51-.53.76c-.18-.28-.5-.56-.49-.83S697.79,211.85,698,211.58Z" fill="inherit"/><path d="M958.69,231.19c.62.82,1.24,1.66.15,2.56l-.61-.42c.23-.63.54-1.23.78-1.88Z" fill="inherit"/><path d="M776.93,235.65c0,.59,0,1.18,0,1.77-1.19-.64-.06-1.26,0-1.93Z" fill="inherit"/><path d="M667.87,247.45c.28.61.59,1.22.82,1.85,0,.06-.58.49-.68.42-1.26-.85-.81-1.67.15-2.46Z" fill="inherit"/><path d="M1012.59,302.82c.6.19,1.19.42,1.81.56a6.93,6.93,0,0,0,1,0c.07.92-.4,1.23-1.23.73a15.05,15.05,0,0,1-1.6-1.29Z" fill="inherit"/><path d="M865.76,343.41c-.25-.1-.7-.2-.71-.3a3.47,3.47,0,0,1,.25-1c.26.1.76.21.75.29A3.91,3.91,0,0,1,865.76,343.41Z" fill="inherit"/><path d="M957.75,348.64c0,.21,0,.54-.09.61a1.11,1.11,0,0,1-.83.21c-.89-.38-.85-.8.11-1C957.17,348.36,957.47,348.56,957.75,348.64Z" fill="inherit"/><path d="M767.07,356.57a15.13,15.13,0,0,1,1.34,1.56c.08.11-.37.77-.41.75-1.36-.52-1-1.54-.66-2.54Z" fill="inherit"/><path d="M825.35,363c.46.88.8,1.75-.3,2.41l-.44-.56c.3-.56.68-1.07,1-1.61Z" fill="inherit"/><path d="M771.48,406.48a16.21,16.21,0,0,1,1.34,1.28c.08.09-.25.7-.28.7-1.24-.38-.85-1.36-.78-2.22Z" fill="inherit"/><path d="M1004.89 442.27L1004.87 441.59 1005.68 441.91 1004.89 442.27z" fill="inherit"/><path d="M1037.75,453.28c-.57.18-1.35.69-1.69.49-.8-.48-.55-.73.5-.33a2.34,2.34,0,0,0,1,0Z" fill="inherit"/><path d="M1054.53,1127.29c-9.17-12.86-18.13-25.88-27.59-38.52s-19.14-25.24-29.34-37.33-21.05-23.65-31.85-35.22c-10.59-11.34-22.45-21.39-33.48-32.4,4.65.23,7.58,3.14,10.47,5.79,8.9,8.14,17.9,16.2,26.3,24.84,29,29.8,54.61,62.37,78.26,96.51C1050.69,1115.86,1053.9,1120.89,1054.53,1127.29Z" fill="inherit"/><path d="M1091.14,1065.38c-9.93-8.57-19.82-17.19-29.8-25.7-10.32-8.79-20.58-17.66-31.15-26.15-10.27-8.25-20.7-16.35-31.42-24-10.56-7.54-21.57-14.45-32.68-21.83,3.11-2,5-.48,6.79.68,9.2,5.87,18.61,11.45,27.47,17.8,29.42,21.09,56.8,44.72,84.05,68.48C1087.5,1057.36,1090.62,1060.12,1091.14,1065.38Z" fill="inherit"/><path d="M1091,1029.63c-14.2-9.83-28.25-19.92-42.67-29.43s-29.3-18.48-44-27.71-30.14-16.42-44.9-25.25c2.16-3.62,3.87-1.64,5.17-1,19.33,10.18,38.43,20.77,57,32.28q31.23,19.35,61,40.93C1086.22,1022.08,1090.05,1024.43,1091,1029.63Z" fill="inherit"/><path d="M801.12,878.08c11.71-4.4,22.36-10.87,33-17.26,23.28-14,46.23-28.49,68.57-43.94,5.83-4,11.9-7.72,18.67-12.09.27,3.88-2,4.8-3.48,5.87-9.27,6.49-18.46,13.11-28,19.2-25.41,16.24-50.47,33.08-77.26,47-3.32,1.74-6.71,3.33-9.83,4.87-2.08-1.13-2-2.5-1.41-4Z" fill="inherit"/><path d="M931.58,684.42c1,4.36-1.5,7.48-3,10.74a419.19,419.19,0,0,1-30.37,53q-12.58,18.81-25.1,37.68c-2.47,3.69-4.67,7.61-8.07,10.27-1.88-1-1.74-2.07-1.11-3q15.75-23.51,31.57-47a432.31,432.31,0,0,0,29.95-51.92C927,690.85,928.13,687.13,931.58,684.42Z" fill="inherit"/><path d="M1060.54,888.28c4.47-1.37,8.82-.51,13.06-.18,40.56,3.16,80.92,7.67,121.07,17.31-2.14,3-4.28,1.65-6,1.37-20.09-3.18-40.12-6.86-60.25-9.68s-40.39-5.11-60.76-5.91C1065.22,891.1,1062.28,891.94,1060.54,888.28Z" fill="inherit"/><path d="M867.54,929.73c10.56,1.08,35.13,15.51,57.85,32.25,25.57,18.84,41.26,32.95,47.1,42.87-5.78-2.76-9-6.86-12.91-10.13-4.32-3.66-8.51-7.46-12.82-11.13-4-3.42-8.07-6.8-12.21-10.08s-8.34-6.47-12.62-9.57-8.64-6.06-13-9c-4.71-3.13-9.48-6.18-14.27-9.17q-6.72-4.2-13.54-8.22C876.6,934.91,872.06,932.34,867.54,929.73Z" fill="inherit"/><path d="M974,700c.51-5.56,4.8-9,7.2-13.44,2.49-4.65,5.28-9.14,7.9-13.72,2.44-4.26,4.87-8.51,7.21-12.82q3.76-7,7.34-14c2.39-4.71,4.69-9.46,7-14.2s4.64-9.48,6.89-14.25c2.09-4.43,4.05-8.93,6.12-13.37,2.21-4.75,4.48-9.48,7.47-15.78-1.62,14-9.85,33.93-29.18,68.58C993.65,671.93,986.34,687.65,974,700Z" fill="inherit"/><path d="M830.84,822.77c8.35-12.09,18-22,25.32-33.59,7.2-11.47,14.79-22.7,22.19-34,7.57-11.6,13.3-24.35,21.61-35.51,2.51,1.34.74,2.63.5,3.74a11.12,11.12,0,0,1-1.44,3c-6.4,11.07-12.4,22.41-19.35,33.13-12.88,19.89-25.2,40.2-40.89,58.12C837,819.74,835.54,822.56,830.84,822.77Z" fill="inherit"/><path d="M958.12,632.43c-.47,13.77-4.2,26.31-9.49,38.45-8.14,18.67-18.49,36.23-27.4,54.5-.29.59-1.06.94-1.63,1.42-2.26-.65-1.36-2.22-.79-3.39,3.62-7.45,7.09-15,11.05-22.25,10.85-19.91,20.43-40.31,25.86-62.46A50.23,50.23,0,0,1,958.12,632.43Z" fill="inherit"/><path d="M1045.93,805.91c-7.68,4.77-16,8.19-24.46,11.25-11.65,4.19-23.12,8.88-34.68,13.31s-23.15,8.79-34.74,13.14c-1.38.51-2.88.75-4.1-.55,1.58-3,4.83-3.43,7.54-4.47,27.33-10.48,54.72-20.81,82.06-31.26,2.87-1.1,5.6-2.21,8.69-1.12Z" fill="inherit"/><path d="M892,988.51c13.84,6.73,52.8,60.74,60.29,81.67-4.29-2.82-6-6.4-8-9.61-4.79-7.63-9.34-15.42-14.28-23a300.91,300.91,0,0,0-30.56-39C896.78,995.76,893.54,993.15,892,988.51Z" fill="inherit"/><path d="M1023.24,879.09c4.78-2.14,9.63-1.54,14.34-1.52,32.77.1,79.43,4.43,94.71,9-7,1-12.41.37-17.72-.28-27.7-3.39-55.44-6.15-83.4-5.73a55.53,55.53,0,0,1-6.68-.55C1024.17,880,1023.89,879.61,1023.24,879.09Z" fill="inherit"/><path d="M943.65,816.82c-9,7.54-19.39,12.77-29.7,18.14s-20.8,10.66-31.24,15.91a59.33,59.33,0,0,1-9.31,4c-2.8.84-5.38,2.87-9.25,2,1.07-2.17,3-2.77,4.75-3.59q29.19-13.65,57.56-28.94c5.52-3,10.5-7.55,17.42-7.26Z" fill="inherit"/><path d="M1127.33,877c15.75-.93,74.06,7.93,88.27,13.43-2,1.74-4.12.78-5.93.49-21.15-3.32-42.27-6.8-63.43-10.06-4.44-.69-9-.63-13.49-1C1130.93,879.72,1128.93,879.85,1127.33,877Z" fill="inherit"/><path d="M961.66,577.82c1.12,15.54-9.64,60.4-18.65,77.72-2.18-.52-1.42-2.25-1-3.31,8.14-22.67,12.67-46.25,17.56-69.73.3-1.47.66-2.92,1.09-4.36C960.68,578,961.3,577.92,961.66,577.82Z" fill="inherit"/><path d="M1152.53,1108.12c-2.29-.95-3.1-1-3.5-1.49-17.77-20-37.13-38.38-56.75-56.51-.12-.11.09-.56.14-.86C1103.1,1053.58,1138.82,1088.24,1152.53,1108.12Z" fill="inherit"/><path d="M968.79,723.74c3.79-.63,5.32-3.93,7.27-6.5,8.86-11.7,17.51-23.55,26.28-35.31,1.71-2.29,2.65-5.37,5.83-6.26,1.21,1,.82,2.15.2,3.07-13.66,20.25-28,40-44.31,58.33-2.55-2.45-.44-3.69.34-5.05,1.64-2.87,4.77-4.92,4.81-8.69Z" fill="inherit"/><path d="M905.24,825.86c6.65-7,51.68-38.46,59.44-42.09,1.17,1.89-.67,2.61-1.54,3.36C954.55,794.51,911.84,823.44,905.24,825.86Z" fill="inherit"/><path d="M1046,1087.4c-15.57-18.91-31.78-37.16-47.73-55.62-.11-.13.17-.62.29-1,2.29-1,3.29,1,4.48,2.17C1020,1049.68,1041.21,1075.91,1046,1087.4Z" fill="inherit"/><path d="M837.35,880.19c-3.92,1.09-7.88,2-11.74,3.31-2.84.94-5.61,2-8.66,1.5l.18.24c0-1.87,1.37-2.48,2.77-3q32.22-12.29,64.49-24.49c.56-.21,1.36.23,2.14.38.2,2.46-2,2.84-3.42,3.42-9.79,3.94-19.66,7.69-29.49,11.57-3.41,1.34-7.45,1.53-9.69,5.12l.37-.29c-2.72,0-5.25.51-7.26,2.51Z" fill="inherit"/><path d="M939,790.36l57.53-45.3c1.76,2.79-.61,3.72-1.71,4.68-6.24,5.45-12.53,10.84-19,16q-14.58,11.61-29.48,22.82C944.79,789.76,943.47,792.34,939,790.36Z" fill="inherit"/><path d="M1028.55,888.67c-17.27,0-34.46,0-51.64-.06-.46,0-.92-.85-1.36-1.29-.23-.92.13-1.56,1.09-1.62a320.61,320.61,0,0,1,48.31.41C1026.31,886.23,1028,886.52,1028.55,888.67Z" fill="inherit"/><path d="M843.93,878.23c6.59.93,12.57-1.69,18.68-3.36,10.84-3,21.6-6.22,32.42-9.31a39.16,39.16,0,0,1,5.07-.43c-10.79,6.48-21.35,8.33-31.36,11.59-10.28,3.35-20.82,5.67-31,8.07-1.79-1.89-.73-3.24-.42-4.59l-.31.25c2.46-.71,5.67.73,7.26-2.51Z" fill="inherit"/><path d="M1000.89,810.64c-17.28,10.91-36.55,17.33-55.48,24.49a2.16,2.16,0,0,1-2.82-.79c1-2.31,3.4-2.64,5.37-3.46,14.89-6.21,29.81-12.35,44.71-18.54,2.74-1.14,5.35-2.92,8.52-1.41Z" fill="inherit"/><path d="M913,861c1.23-.79,2.36-1.9,3.7-2.33C934.84,852.77,953,847,971.42,842c-8.62,5.86-18.56,8.5-28.17,11.85S923.61,860.37,913,861Z" fill="inherit"/><path d="M1165.22,892.25c4-1.67,7.69-.64,11.18.14,16,3.59,32.49,5.45,48.42,11.24a4.55,4.55,0,0,1-4.64,1.31C1208.72,903.19,1170.8,894.44,1165.22,892.25Z" fill="inherit"/><path d="M1028.47,621.82c1.1-8.36,4.44-13.34,6.69-18.7,2.31-5.52,4.62-11.06,7-16.57s3-11.47,6.18-16.7c2.57,1.61,1.7,3.52,1.23,5.06C1044.79,590.68,1039.13,606.05,1028.47,621.82Z" fill="inherit"/><path d="M911.6,696.26c-.58-.93-1-1.25-1-1.56a10.4,10.4,0,0,1,.43-3.22c6.21-15.59,9.56-32.12,15.66-47.79,1,9.06-2.12,17.39-4.72,25.66C919.18,678.38,917.26,687.9,911.6,696.26Z" fill="inherit"/><path d="M878.44,910.46c16.22,2.47,31.63,8,47,13.78a2.22,2.22,0,0,1,1.46,2.51C920.71,926.2,886.11,915.16,878.44,910.46Z" fill="inherit"/><path d="M959.75,886.38c-10.23,3.11-38.18,5.13-46.42,3.92.41-.59.71-1.55,1.25-1.7C919.13,887.25,949,885.67,959.75,886.38Z" fill="inherit"/><path d="M1122.77,771.59c-12.87,8.47-35.58,18.93-45.21,21,.07-.63,0-1.68.26-1.83q18.18-8.65,36.44-17.15C1116.55,772.59,1118.73,771.05,1122.77,771.59Z" fill="inherit"/><path d="M1071.09,674.75c-7.52,12.59-18.17,22.4-28.67,32.77-.49-1.28-1.1-2.21-.9-2.45A276.5,276.5,0,0,1,1071.09,674.75Z" fill="inherit"/><path d="M1168.06,745.27c-8.64,7.86-27.45,18.17-35,20.1a2.5,2.5,0,0,1,1.4-2.61C1145.16,756.05,1156.48,750.56,1168.06,745.27Z" fill="inherit"/><path d="M963.39,718.32c-6.24,7.95-12.45,15.92-18.75,23.82-2.3,2.88-4.82,5.6-7,8.18-2-.7-2.07-1.84-1.41-2.69q10.71-13.78,21.56-27.47c1.53-1.95,3.39-2.93,5.87-1.76Z" fill="inherit"/><path d="M1001.47,664l17.42-29.83c2.29,1.19,1.85,2.69,1.2,3.84-4.62,8.11-9.33,16.17-14.05,24.22a3.64,3.64,0,0,1-4.79,1.64Z" fill="inherit"/><path d="M1141.47,1121.19c-6.66-6.51-12-14.1-17.78-21.2,1.66-2,2.86-1,3.87.11a104.1,104.1,0,0,1,14,17.71C1142.13,1118.75,1142.92,1119.63,1141.47,1121.19Z" fill="inherit"/><path d="M907.75,848.8c7.76-5.44,16-7.57,24-10.31,1.57,2.44-.27,2.88-1.42,3.34q-9.75,4-19.6,7.72C910.25,849.75,909.46,849.25,907.75,848.8Z" fill="inherit"/><path d="M984.75,838.33c2.66-4.15,4.79-4.92,6.9-5.78a115.43,115.43,0,0,1,21.44-6.43C1003.7,832.9,994.83,834.38,984.75,838.33Z" fill="inherit"/><path d="M969.21,723.33l-7.71,6.49c.88-5.38,6.5-14.14,14.86-23.33,1.36,1.26.82,2.5.11,3.87-2.38,4.57-6.52,8.14-7.68,13.39Z" fill="inherit"/><path d="M1031.78,999c-.27.15-.68.49-.81.4q-10.14-6.87-20.21-13.83c-.23-.16-.19-.7-.28-1.06C1017.64,985.19,1024.65,990,1031.78,999Z" fill="inherit"/><path d="M1048.94,1012.69c8,3.22,13.38,7.16,20.87,15-.87,2.41-2.12,1-3.13.21-4.54-3.35-9.07-6.71-13.54-10.16C1051.52,1016.53,1049.69,1015.33,1048.94,1012.69Z" fill="inherit"/><path d="M857.75,904.4c-1.4,1.8-3.3,1.06-4.94.78-6.24-1-12.53-1.91-18.91-4.65A46,46,0,0,1,857.75,904.4Z" fill="inherit"/><path d="M869.85,964.24c5.56,2.29,8.38,7.61,12.65,11.17-1.73,2.55-3,1.47-3.94.53-3.49-3.29-6.89-6.67-10.33-10Z" fill="inherit"/><path d="M973.65,1106.54c-2.36.11-3.09-1.89-4-3.37-3.26-5.29-7.11-10.31-9.44-17.63,6.37,5.4,9.7,11,13.16,21.26Z" fill="inherit"/><path d="M1148.58,1080.58c-5.86-2.87-9.73-7.87-15.77-14C1141.1,1069.64,1141.87,1070.33,1148.58,1080.58Z" fill="inherit"/><path d="M887,838.36c-3,3.59-5.93,7.5-12.53,7.71A18.29,18.29,0,0,1,887,838.36Z" fill="inherit"/><path d="M1068.86,1117.51a40,40,0,0,1,9.93,14.4C1072.49,1128,1071.07,1126,1068.86,1117.51Z" fill="inherit"/><path d="M884.84,730.78c-2.39,8-2.39,8-7.49,12.15,2.15-7.41,2.15-7.41,7.75-11.92Z" fill="inherit"/><path d="M1153.39,870.29c3.43-.48,6.53-1.38,9.39,1.3C1158.2,873,1158.2,873,1153.39,870.29Z" fill="inherit"/><path d="M1140.85,869.11c-4.39,2.14-8.2,1.81-11.66-1Z" fill="inherit"/><path d="M1016.84,728.92c1.39-4.28,4.8-6.59,9.08-9.13C1023.12,725.28,1023.12,725.28,1016.84,728.92Z" fill="inherit"/><path d="M1116.29,1049.25c4.27,1.82,7.44,4.56,10.68,10.12C1120.8,1056.74,1117.7,1053.8,1116.29,1049.25Z" fill="inherit"/><path d="M1088.64,873.78c-.23,1.2-1.3,1.24-2.28,1.17-.63-.05-1.62-.31-1.77-.72-.49-1.33.5-1.8,1.62-1.83S1088.31,872.32,1088.64,873.78Z" fill="inherit"/><path d="M897.08,796.65c.81-3.94,3.4-6.25,6.48-8.36C902.5,793.11,902.59,793.19,897.08,796.65Z" fill="inherit"/><path d="M921.09,769.81c1.63-4.33,2.56-6.19,4.93-6.89,1.5,1.6-.59,2.3-1,3.31S923.53,767.66,921.09,769.81Z" fill="inherit"/><path d="M854.08,950.05c-1.72,1.3-2.92.3-4-.61-.47-.39-.92-1.49-.7-1.87.77-1.31,1.91-.71,2.72,0A17.7,17.7,0,0,1,854.08,950.05Z" fill="inherit"/><path d="M1063.36,1109.32c-3.75-1.53-5.22-3-5.54-5.4,1.9-1.43,2.45.54,3.26,1.43A26.06,26.06,0,0,1,1063.36,1109.32Z" fill="inherit"/><path d="M1116.23,1088.26c.41,1.34,0,2.07-.72,1.74a5.62,5.62,0,0,1-2.18-2.12.84.84,0,0,1,1-1.25A6.91,6.91,0,0,1,1116.23,1088.26Z" fill="inherit"/><path d="M834.69,871c-.77,3.67-4.05,3.28-6.92,4.94.81-5.36,4.31-4.43,7.16-4.67Z" fill="inherit"/><path d="M939.6,932.42a8.92,8.92,0,0,1-2.2-1.76c-.44-.65.17-1.4,1-1.28,1.4.21,2.93.42,3.3,2.16A11.93,11.93,0,0,1,939.6,932.42Z" fill="inherit"/><path d="M992.75,684.58c-1.41-1.82-.84-3,.42-3.91.39-.28,1.12-.14,1.68-.07a1,1,0,0,1,.21.88C994.36,682.52,993.58,683.49,992.75,684.58Z" fill="inherit"/><path d="M813.66,840c1.05-.06,2.1-.09,3.15-.18s1.54.24,1.38,1a3,3,0,0,1-1.14,1.69c-.4.28-1.46.31-1.66,0a18.12,18.12,0,0,1-1.38-2.75Z" fill="inherit"/><path d="M939,667.85c0,1.07,0,2.16-1.12,2.67a2.15,2.15,0,0,1-1-1.3c0-1,.21-2.19,1.62-2.27C938.62,666.94,938.8,667.53,939,667.85Z" fill="inherit"/><path d="M901.36,852c-.39,1.46-1.64,2-2.87,2.29-.33.09-.93-.57-1.28-1-.11-.12.13-.71.36-.91A2.86,2.86,0,0,1,901.36,852Z" fill="inherit"/><path d="M934.25,798c-.94.68-1.81,1.37-2.74,2a1.26,1.26,0,0,1-1.07.08,1.13,1.13,0,0,1-.36-1.89C931.09,796.84,932.25,796.2,934.25,798Z" fill="inherit"/><path d="M1045.47,888.56c1.75-2.08,3.36-1.14,5.57-.52A4.65,4.65,0,0,1,1045.47,888.56Z" fill="inherit"/><path d="M944.31,1040.79c-3.36.14-4.27-1.85-4.2-5.55A6.91,6.91,0,0,1,944,1041Z" fill="inherit"/><path d="M866.12,760.75c.31,0,.77,0,1,.14.72.75-.69,3.52-1.74,3.38a1.1,1.1,0,0,1-.69-.79A2.72,2.72,0,0,1,866.12,760.75Z" fill="inherit"/><path d="M1023.5,653.61c-.43.81-.83,1.84-2,1.28-.3-.15-.38-1.29-.15-1.8s.94-.69,1.45-1C1023.05,652.58,1023.28,653.09,1023.5,653.61Z" fill="inherit"/><path d="M1104,1038c-.61.13-1.33.51-1.81.31a1.86,1.86,0,0,1-1-1.48c.16-.84.94-1,1.6-.33A14.43,14.43,0,0,1,1104,1038Z" fill="inherit"/><path d="M990.58,1022.05c-.21.15-.54.57-.82.55-1.26-.1-2.14-.73-2.08-2.12,0-.27.6-.81.74-.75C989.47,1020.14,990.55,1020.61,990.58,1022.05Z" fill="inherit"/><path d="M1060.33,800.55c-.87.46-1.75,1.28-2.63.08a1,1,0,0,1,.14-1,2.17,2.17,0,0,1,2.81,0C1060.73,799.69,1060.44,800.23,1060.33,800.55Z" fill="inherit"/><path d="M1102.78,1074.24c.93.47,1.68,1.16,1.42,2.24-.19.76-1,.85-1.63.23a9.24,9.24,0,0,1-1.13-1.65Z" fill="inherit"/><path d="M921.5,1007a2,2,0,0,1,1.43,2.29c-.19.85-.87.84-1.41.08a1.63,1.63,0,0,1,.27-2.57Z" fill="inherit"/><path d="M1014,668.71l-1.18,1.59c-.28-.5-.78-1-.79-1.49,0-.92.65-1.3,1.48-1C1013.7,667.94,1013.79,668.41,1014,668.71Z" fill="inherit"/><path d="M896.64,831.24c.08.22.26.59.21.62-.74.47-1.15.32-1-.36C895.86,831.37,896.36,831.33,896.64,831.24Z" fill="inherit"/><path d="M943.88,817.09c.53-2.84,2.68-2.15,4.54-2.1l-.3-.31c-.93,1.89-2.64,2.15-4.47,2.14Z" fill="inherit"/><path d="M948.42,815a12.71,12.71,0,0,1,.68-1.67c0-.1.77,0,.77,0,.12,1.35-1.12.92-1.75,1.31Z" fill="inherit"/><path d="M850.18,865.73a12.86,12.86,0,0,1-.74-1.76c-.07-.27.08-.84.26-.9,1-.34,1.22,0,.84,1a10.49,10.49,0,0,0-.42,1.78Z" fill="inherit"/><path d="M1001.19,810.93c-.36-.9-1.2-1.92.49-2.36.13,0,.54.48.53.5-.44.52-.91,1-1.35,1.54Z" fill="inherit"/><path d="M850.12,865.83a8.48,8.48,0,0,0-1.77-.33c-1.51,0,.17,1.26-.88.21-.55-.55,0-.89.95-.38a6.87,6.87,0,0,0,1.76.41Z" fill="inherit"/><path d="M1046.24,806.21a4.92,4.92,0,0,1,.31-1.93c.42-.66,1.13-.4.89.14s-1,1-1.53,1.47Z" fill="inherit"/><path d="M834.93,871.3c.31-.52.5-1.22,1-1.52.7-.45,1.33-.07,1.45.75,0,.16-.47.54-.74.57a13.6,13.6,0,0,1-1.91-.06Z" fill="inherit"/><path d="M806,885.52c-.48-1.09-.42-2,1-2.27.28-.06.63.2.94.32-.75.54-1.49,1.07-2.23,1.63Z" fill="inherit"/><path d="M817,885c-.43.49-.78,1.17-1.32,1.42-.86.41-1.44-.06-1.34-1,0-.22.56-.55.85-.54a11.71,11.71,0,0,1,2,.35Z" fill="inherit"/><path d="M885.1,731c0-.6-.15-1.39.16-1.76.5-.58,1.18-.2,1,.59-.09.4-.92.63-1.42.94Z" fill="inherit"/><path d="M861.81,958.29c.28-.11.59-.35.84-.29.92.19,1,.65.28,1.12-.2.12-.64,0-.89-.2S861.88,958.51,861.81,958.29Z" fill="inherit"/><path d="M963.61,718.4a8.15,8.15,0,0,1-1.43-1.58c-.4-.76,0-1.35.81-1.45.11,0,.4.48.4.75,0,.7-.09,1.41-.07,2.16Z" fill="inherit"/><path d="M992,974.6l2.81-.41-2.75.48Z" fill="inherit"/><path d="M905.55,708.14l1.17-.79a9.29,9.29,0,0,1,.21,1.73c0,.24-.44.45-.68.67C906,709.22,905.78,708.68,905.55,708.14Z" fill="inherit"/><path d="M985.76,693.62c.1.27.31.55.27.79s-.31.45-.48.68C985.62,694.6,985.68,694.11,985.76,693.62Z" fill="inherit"/><path d="M1001.25,663.85c.7.71,1.73,1.32.85,2.54,0,.05-.64-.16-.64-.25,0-.69.09-1.37.08-2.11Z" fill="inherit"/><path d="M1077.36,1035.29c-.07.23-.15.64-.22.64a1.19,1.19,0,0,1-.79-.25c-.09-.09.1-.47.17-.72Z" fill="inherit"/><path d="M944,1041a16,16,0,0,1,1.26,1.47l-.47.65c-1.32-.5-1.09-1.39-.51-2.35Z" fill="inherit"/><path d="M1031.67,637.41a1.63,1.63,0,0,1-.17,2.57,1,1,0,0,1-.83-.24,1.47,1.47,0,0,1,1.29-2.11Z" fill="inherit"/><path d="M973.36,1106.8a16.57,16.57,0,0,1,1.31,1.34l-.37.67c-1.28-.41-.94-1.35-.66-2.26Z" fill="inherit"/></g></svg>